<?xml version="1.0" encoding="UTF-8" standalone="no"?>
<!-- Created with Inkscape (http://www.inkscape.org/) -->

<svg
   width="44"
   height="44"
   viewBox="0 0 11.641666 11.641667"
   version="1.1"
   id="svg87087"
   xml:space="preserve"
   inkscape:version="1.2.1 (ef4d3fba62, 2022-07-19, custom)"
   sodipodi:docname="data-table.svg"
   xmlns:inkscape="http://www.inkscape.org/namespaces/inkscape"
   xmlns:sodipodi="http://sodipodi.sourceforge.net/DTD/sodipodi-0.dtd"
   xmlns="http://www.w3.org/2000/svg"
   xmlns:svg="http://www.w3.org/2000/svg"><sodipodi:namedview
     id="namedview87089"
     pagecolor="#ffffff"
     bordercolor="#000000"
     borderopacity="0.25"
     inkscape:showpageshadow="2"
     inkscape:pageopacity="0.0"
     inkscape:pagecheckerboard="0"
     inkscape:deskcolor="#d1d1d1"
     inkscape:document-units="mm"
     showgrid="true"
     inkscape:zoom="10.099009"
     inkscape:cx="14.456864"
     inkscape:cy="20.942649"
     inkscape:window-width="1846"
     inkscape:window-height="1016"
     inkscape:window-x="0"
     inkscape:window-y="0"
     inkscape:window-maximized="1"
     inkscape:current-layer="layer1"><inkscape:grid
       type="xygrid"
       id="grid87091"
       originx="0.035416676"
       originy="0.035416684" /></sodipodi:namedview><defs
     id="defs87084" /><g
     inkscape:label="Layer 1"
     inkscape:groupmode="layer"
     id="layer1"
     transform="translate(0.03541668,0.03541668)"><path
       style="fill:none;stroke:#000000;stroke-width:0.6;stroke-linecap:butt;stroke-linejoin:round;stroke-dasharray:none"
       d="M 0.44244623,2.5679332 H 10.680912"
       id="path87097" /><path
       style="fill:none;stroke:#000000;stroke-width:0.4;stroke-linecap:butt;stroke-linejoin:round;stroke-dasharray:none"
       d="M 3.599884,2.5400672 V 9.3386533"
       id="path87105" /><path
       style="fill:none;stroke:#000000;stroke-width:0.4;stroke-linecap:butt;stroke-linejoin:round;stroke-dasharray:none"
       d="M 7.0127063,2.5722636 V 6.1486449"
       id="path87107" /><path
       style="fill:none;stroke:#000000;stroke-width:0.4;stroke-linecap:butt;stroke-linejoin:round;stroke-dasharray:none"
       d="M 0.44244623,4.8434169 H 10.680912"
       id="path87109" /><path
       style="fill:none;stroke:#000000;stroke-width:0.4;stroke-linecap:butt;stroke-linejoin:round;stroke-dasharray:none"
       d="M 0.44244623,7.1189008 H 6.5576633"
       id="path87111" /><g
       inkscape:label="Layer 1"
       id="layer1-2"
       transform="translate(12.949271,3.8037764)"><path
         style="color:#000000;fill:#000000;stroke-width:1;stroke-linecap:round;stroke-linejoin:bevel;-inkscape-stroke:none"
         d="m -4.116393,1.7320459 c -0.6718516,0 -1.2830224,0.1326268 -1.7534382,0.3678624 -0.4704158,0.2352357 -0.8448078,0.6033538 -0.8448078,1.0918291 -1e-7,0.4884754 0.374392,0.8582732 0.8448078,1.0935089 0.4704158,0.2352357 1.0815866,0.3678624 1.7534382,0.3678624 0.6718517,0 1.2813429,-0.1326267 1.7517586,-0.3678624 0.4704157,-0.2352357 0.8448079,-0.6050335 0.8448079,-1.0935089 0,-0.4884753 -0.3743922,-0.8565934 -0.8448079,-1.0918291 C -2.8350501,1.8646727 -3.4445414,1.7320459 -4.116393,1.7320459 Z m 0,0.645019 c 0.5847135,0 1.1115084,0.1224478 1.4645576,0.2989932 0.3530491,0.1765455 0.4870661,0.3757978 0.4870661,0.5156793 0,0.1398815 -0.134017,0.3408135 -0.4870661,0.517359 -0.3530492,0.1765455 -0.8798441,0.2989933 -1.4645576,0.2989933 -0.5847135,0 -1.1115084,-0.1224478 -1.4645575,-0.2989933 -0.3530493,-0.1765455 -0.4887458,-0.3774774 -0.4887457,-0.517359 0,-0.1398815 0.1356964,-0.3391338 0.4887457,-0.5156793 0.3530491,-0.1765454 0.879844,-0.2989932 1.4645575,-0.2989932 z"
         id="path51299" /><path
         style="color:#000000;fill:#000000;stroke-width:1;stroke-linecap:round;stroke-linejoin:bevel;-inkscape-stroke:none"
         d="M -6.3921676,4.4632985 A 0.32247139,0.32250952 0 0 0 -6.714639,4.785808 c -1e-7,0.4884754 0.374392,0.8565934 0.8448078,1.091829 0.4704159,0.2352357 1.0815865,0.3678625 1.7534382,0.3678625 0.6718516,-1e-7 1.281343,-0.1326268 1.7517586,-0.3678625 0.4704157,-0.2352356 0.8448079,-0.6033538 0.8448079,-1.091829 A 0.32247139,0.32250952 0 0 0 -1.8422979,4.4632985 0.32247139,0.32250952 0 0 0 -2.1647693,4.785808 c 0,0.1398814 -0.1340171,0.3391338 -0.4870661,0.5156792 -0.3530492,0.1765455 -0.8798441,0.2989932 -1.4645576,0.2989932 -0.5847136,0 -1.1115083,-0.1224477 -1.4645575,-0.2989932 C -5.9339998,5.1249417 -6.0696963,4.9256895 -6.0696962,4.785808 A 0.32247139,0.32250952 0 0 0 -6.3921676,4.4632985 Z"
         id="path52558" /><path
         style="color:#000000;fill:#000000;stroke-width:1;stroke-linecap:round;stroke-linejoin:bevel;-inkscape-stroke:none"
         d="M -6.3921676,6.0556891 A 0.32247139,0.32250952 0 0 0 -6.714639,6.3781987 c -1e-7,0.4884755 0.374392,0.8582731 0.8448078,1.0935088 0.4704159,0.2352357 1.0815865,0.3661827 1.7534382,0.3661827 0.6718516,0 1.281343,-0.130947 1.7517586,-0.3661827 0.4704157,-0.2352357 0.8448079,-0.6050335 0.8448079,-1.0935088 A 0.32247139,0.32250952 0 0 0 -1.8422979,6.0556891 0.32247139,0.32250952 0 0 0 -2.1647693,6.3781987 c 0,0.1398814 -0.1340171,0.3391339 -0.4870661,0.5156793 -0.3530492,0.1765455 -0.8798441,0.2989931 -1.4645576,0.2989932 -0.5847136,0 -1.1115083,-0.1224477 -1.4645575,-0.2989932 C -5.9339998,6.7173325 -6.0696963,6.5180802 -6.0696962,6.3781987 A 0.32247139,0.32250952 0 0 0 -6.3921676,6.0556891 Z"
         id="path52558-9" /><path
         style="color:#000000;fill:#000000;stroke-width:1;stroke-linejoin:bevel;-inkscape-stroke:none"
         d="m -6.714639,3.1917374 v 3.1864613 h 0.6449428 V 3.1917374 Z"
         id="path51781" /><path
         style="color:#000000;fill:#000000;stroke-width:1;stroke-linejoin:bevel;-inkscape-stroke:none"
         d="m -2.1647693,3.1917374 v 3.1864613 h 0.6449428 V 3.1917374 Z"
         id="path51783" /><path
         style="fill:none;stroke-width:0.750001;stroke-linecap:round;stroke-linejoin:bevel"
         d="m 3.96875,11.90625 7.9375,-9e-6"
         id="path51820" /><path
         style="fill:none;stroke-width:0.750001;stroke-linecap:round;stroke-linejoin:bevel"
         d="m 13.229167,11.90625 -7.9375004,-9e-6"
         id="path52554" /><path
         id="path52588"
         style="stroke-width:0.250001;stroke-linecap:round"
         d="M -5.2545599,4.8989103 A 0.22752147,0.22754835 0 0 1 -5.4820815,5.1264586 0.22752147,0.22754835 0 0 1 -5.7096029,4.8989103 0.22752147,0.22754835 0 0 1 -5.4820815,4.671362 0.22752147,0.22754835 0 0 1 -5.2545599,4.8989103 Z" /><path
         id="path52588-7"
         style="stroke-width:0.250001;stroke-linecap:round"
         d="M -5.2545599,6.4917491 A 0.22752147,0.22754835 0 0 1 -5.4820815,6.7192975 0.22752147,0.22754835 0 0 1 -5.7096029,6.4917491 0.22752147,0.22754835 0 0 1 -5.4820815,6.2642007 0.22752147,0.22754835 0 0 1 -5.2545599,6.4917491 Z" /></g><path
       style="fill:none;stroke:#000000;stroke-width:0.6;stroke-linecap:butt;stroke-linejoin:round;stroke-dasharray:none;stroke-opacity:1"
       d="M 6.5576633,9.1389701 H 0.41458333 V 0.26458334 H 10.425528 V 6.1808413"
       id="path93295"
       sodipodi:nodetypes="ccccc" /></g></svg>
