<?xml version="1.0" encoding="UTF-8" standalone="no"?>
<!-- Created with Inkscape (http://www.inkscape.org/) -->

<svg
   width="13.579167mm"
   height="14.171452mm"
   viewBox="0 0 13.579167 14.171452"
   version="1.1"
   id="svg83137"
   xml:space="preserve"
   sodipodi:docname="query.svg"
   inkscape:version="1.2.1 (ef4d3fba62, 2022-07-19, custom)"
   xmlns:inkscape="http://www.inkscape.org/namespaces/inkscape"
   xmlns:sodipodi="http://sodipodi.sourceforge.net/DTD/sodipodi-0.dtd"
   xmlns="http://www.w3.org/2000/svg"
   xmlns:svg="http://www.w3.org/2000/svg"><sodipodi:namedview
     id="namedview83139"
     pagecolor="#ffffff"
     bordercolor="#000000"
     borderopacity="0.25"
     inkscape:showpageshadow="2"
     inkscape:pageopacity="0.0"
     inkscape:pagecheckerboard="0"
     inkscape:deskcolor="#d1d1d1"
     inkscape:document-units="mm"
     showgrid="true"
     inkscape:zoom="7.1410774"
     inkscape:cx="-14.003489"
     inkscape:cy="13.653402"
     inkscape:window-width="2486"
     inkscape:window-height="1376"
     inkscape:window-x="0"
     inkscape:window-y="0"
     inkscape:window-maximized="1"
     inkscape:current-layer="layer1"><inkscape:grid
       type="xygrid"
       id="grid83522"
       originx="3.4798145e-09"
       originy="-0.97291667" /></sodipodi:namedview><defs
     id="defs83134" /><g
     inkscape:label="Layer 1"
     inkscape:groupmode="layer"
     id="layer1"
     transform="translate(0,-0.97291661)"><path
       style="fill:none;stroke:#000000;stroke-width:0.8;stroke-linecap:round;stroke-linejoin:round;stroke-dasharray:none"
       d="M 11.90625,2.6458333 V 3.96875"
       id="path83538" /><path
       style="fill:none;stroke:#000000;stroke-width:0.8;stroke-linecap:round;stroke-linejoin:round;stroke-dasharray:none"
       d="M 11.90625,6.6145832 V 7.9374999"
       id="path83542" /><path
       style="fill:none;stroke:#000000;stroke-width:0.8;stroke-linecap:round;stroke-linejoin:round;stroke-dasharray:none"
       d="M 11.90625,10.583333 V 11.90625"
       id="path83544" /><path
       style="fill:none;stroke:#000000;stroke-width:0.7;stroke-linecap:round;stroke-linejoin:round;stroke-dasharray:none"
       d="M 13.229167,1.3229166 V 13.229167"
       id="path83546" /><path
       id="rect83548"
       style="fill:none;stroke:#000000;stroke-width:0.782453;stroke-linecap:round;stroke-linejoin:round;stroke-dasharray:none"
       d="m 2.6488871,11.305818 -2.06099851,2.205985 c -0.27963341,0.29931 -0.26407534,0.765306 0.035235,1.044939 0.29931,0.279633 0.76530671,0.263498 1.04494011,-0.03581 l 2.1609296,-2.31285 A 2.9574865,2.9574865 0 0 1 3.6695666,12.136456 2.9574865,2.9574865 0 0 1 3.4991642,12.04519 2.9574865,2.9574865 0 0 1 3.3345387,11.942949 2.9574865,2.9574865 0 0 1 3.1774219,11.830309 2.9574865,2.9574865 0 0 1 3.0278145,11.707274 2.9574865,2.9574865 0 0 1 2.886872,11.574996 2.9574865,2.9574865 0 0 1 2.7545937,11.434052 2.9574865,2.9574865 0 0 1 2.6488871,11.305818 Z" /><circle
       style="fill:none;stroke:#000000;stroke-width:0.782453;stroke-linecap:round;stroke-linejoin:round;stroke-dasharray:none"
       id="path84044"
       cx="5.2014508"
       cy="9.260417"
       r="2.9574864" /><path
       style="fill:none;stroke:#000000;stroke-width:0.7;stroke-linecap:round;stroke-linejoin:round;stroke-dasharray:none"
       d="M 13.229167,13.229167 H 4.4979167"
       id="path84046"
       sodipodi:nodetypes="cc" /><path
       style="fill:none;stroke:#000000;stroke-width:0.7;stroke-linecap:round;stroke-linejoin:round;stroke-dasharray:none"
       d="M 13.229167,9.2604166 H 9.2604166"
       id="path84048" /><path
       style="fill:none;stroke:#000000;stroke-width:0.7;stroke-linecap:round;stroke-linejoin:round;stroke-dasharray:none"
       d="M 13.229167,5.2916666 H 2.6458333"
       id="path84050" /><path
       style="fill:none;stroke:#000000;stroke-width:0.7;stroke-linecap:round;stroke-linejoin:round;stroke-dasharray:none"
       d="M 2.6458333,6.0854167 V 1.3229166 l 10.5833337,10e-8"
       id="path84052"
       sodipodi:nodetypes="ccc" /><path
       style="fill:none;stroke:#000000;stroke-width:0.8;stroke-linecap:round;stroke-linejoin:round;stroke-dasharray:none"
       d="M 10.583333,2.6458333 V 3.96875"
       id="path84054" /><path
       style="fill:none;stroke:#000000;stroke-width:0.8;stroke-linecap:round;stroke-linejoin:round;stroke-dasharray:none"
       d="M 10.583333,6.6145832 V 7.9374999"
       id="path84056" /><path
       style="fill:none;stroke:#000000;stroke-width:0.8;stroke-linecap:round;stroke-linejoin:round;stroke-dasharray:none"
       d="M 10.583333,10.583333 V 11.90625"
       id="path84058" /><path
       style="fill:none;stroke:#000000;stroke-width:0.8;stroke-linecap:round;stroke-linejoin:round;stroke-dasharray:none"
       d="M 9.2604166,10.583333 V 11.90625"
       id="path84060" /><path
       style="fill:none;stroke:#000000;stroke-width:0.8;stroke-linecap:round;stroke-linejoin:round;stroke-dasharray:none"
       d="M 9.2604166,6.6145832 V 7.9374999"
       id="path84062" /><path
       style="fill:none;stroke:#000000;stroke-width:0.8;stroke-linecap:round;stroke-linejoin:round;stroke-dasharray:none"
       d="M 9.2604166,2.6458333 V 3.96875"
       id="path84064" /><path
       style="fill:none;stroke:#000000;stroke-width:0.8;stroke-linecap:round;stroke-linejoin:round;stroke-dasharray:none"
       d="M 7.9374999,2.6458333 V 3.96875"
       id="path84066" /><path
       fill="#000000"
       d="m 6.0185009,8.5340435 a 0.92606812,0.92606812 0 0 0 -1.72806,-0.4630209 0.26462588,0.26462588 0 0 0 0.45837,0.2645834 0.39757879,0.39757879 0 0 1 0.343649,-0.1984375 0.396875,0.396875 0 1 1 0,0.79375 h -6.46e-4 a 0.25131183,0.25131183 0 0 0 -0.05008,0.010239 0.27299973,0.27299973 0 0 0 -0.05255,0.010755 0.26001927,0.26001927 0 0 0 -0.04115,0.027741 0.2667344,0.2667344 0 0 0 -0.04286,0.029038 0.265811,0.265811 0 0 0 -0.03097,0.045958 0.2587334,0.2587334 0 0 0 -0.02558,0.038145 0.27054175,0.27054175 0 0 0 -0.01134,0.056068 0.25094935,0.25094935 0 0 0 -0.0094,0.046638 v 0.2645833 l 6.14e-4,0.003 2.91e-4,0.129934 a 0.26462567,0.26462567 0 0 0 0.264583,0.263942 h 6.45e-4 a 0.26459921,0.26459921 0 0 0 0.263938,-0.265229 l -4.05e-4,-0.17499 a 0.92435627,0.92435627 0 0 0 0.660951,-0.8826973 z m -1.111948,1.7965195 a 0.26458333,0.26458333 0 0 0 0.185131,0.452438 0.27410833,0.27410833 0 0 0 0.187974,-0.07673 0.26859706,0.26859706 0 0 0 0,-0.375687 0.27364531,0.27364531 0 0 0 -0.373105,-2.1e-5 z"
       id="path84447"
       style="stroke-width:0.264583" /></g></svg>
