<svg id="visual" viewBox="0 0 960 330" width="960" height="330" xmlns="http://www.w3.org/2000/svg" xmlns:xlink="http://www.w3.org/1999/xlink" version="1.1"><rect x="0" y="0" width="960" height="330" fill="#6cb2c5"></rect><g transform="translate(471.1486233589775 170.3596269558737)"><path d="M51.6 -99.6C66.4 -80.7 77.9 -66.1 90.9 -50.3C103.9 -34.4 118.4 -17.2 125.8 4.2C133.1 25.7 133.2 51.3 123.1 72.1C112.9 92.9 92.5 108.8 70.2 120.3C48 131.8 24 138.9 -0.7 140.1C-25.3 141.2 -50.7 136.4 -66.8 121.4C-83 106.4 -90 81.2 -97.5 59.3C-105 37.3 -113 18.7 -113.3 -0.2C-113.6 -19 -106.2 -38 -99.2 -60.8C-92.2 -83.6 -85.6 -110.2 -69.1 -128.2C-52.7 -146.2 -26.3 -155.6 -4 -148.7C18.3 -141.8 36.7 -118.5 51.6 -99.6" fill="#2c3e50"></path></g></svg>