<svg id="visual" viewBox="0 0 960 330" width="960" height="330" xmlns="http://www.w3.org/2000/svg" xmlns:xlink="http://www.w3.org/1999/xlink" version="1.1"><rect x="0" y="0" width="960" height="330" fill="#6cb2c5"></rect><g transform="translate(489.7571233043268 157.73038519706546)"><path d="M51.6 -91.6C68.4 -79.5 84.9 -69 101.7 -54C118.5 -39 135.8 -19.5 134.5 -0.8C133.2 18 113.4 36 100.8 58.4C88.2 80.7 82.8 107.5 67.3 120.8C51.7 134.2 25.8 134.1 4.2 126.9C-17.5 119.6 -35 105.3 -58.4 96.5C-81.8 87.6 -111 84.3 -129.8 69.2C-148.5 54 -156.8 27 -153.3 2C-149.8 -23 -134.7 -46 -115.8 -60.9C-96.9 -75.8 -74.2 -82.5 -54.3 -92.9C-34.4 -103.2 -17.2 -117.1 0.1 -117.2C17.3 -117.4 34.7 -103.7 51.6 -91.6" fill="#2c3e50"></path></g></svg>