<?xml version="1.0" encoding="iso-8859-1"?>
<!-- Generator: Adobe Illustrator 16.0.0, SVG Export Plug-In . SVG Version: 6.00 Build 0)  -->
<!DOCTYPE svg PUBLIC "-//W3C//DTD SVG 1.1//EN" "http://www.w3.org/Graphics/SVG/1.1/DTD/svg11.dtd">
<svg version="1.1" id="Capa_1" xmlns="http://www.w3.org/2000/svg" xmlns:xlink="http://www.w3.org/1999/xlink" x="0px" y="0px"
	 width="31.434px" height="31.433px" viewBox="0 0 31.434 31.433" style="enable-background:new 0 0 31.434 31.433;"
	 xml:space="preserve">
<g>
	<g>
		<g>
			<path fill="#006582" d="M22.691,21.492c0,0-0.009,0.357-0.009,0.798v0.009H8.413v1.307c0,0,1.756,4.312,1.766,4.388
				c0.551-0.5,1.734-1.271,3.227-0.492c0.677,0.353,1.485,0.351,2.158-0.007c0.629-0.333,1.504-0.523,2.524,0.007
				c0.676,0.353,1.482,0.351,2.156-0.007c0.629-0.333,1.506-0.523,2.524,0.008c0.677,0.354,1.481,0.35,2.156-0.007
				c0.756-0.401,1.87-0.595,3.161,0.427l3.348-6.43H22.691z"/>
		</g>
		<g>
			<path fill="#006582" d="M13.251,21.896v-5.241l1.003-0.808h-3.02v-1.169h1.043v-0.471h-1.043v-2.392h-0.402v2.392H9.789v0.471h1.043v1.169H8.009
				v0.808h1.21v5.241H13.251z M11.211,17.235h1.312v1.205h-1.312V17.235z M11.211,19.165h1.312v1.204h-1.312V19.165z"/>
		</g>
		<g>
			<rect fill="#006582" x="13.956" y="18.44" width="8.3" height="3.456"/>
		</g>
		<g>
			<rect fill="#006582" x="22.688" y="17.606" width="8.299" height="3.456"/>
		</g>
		<g>
			<rect fill="#006582" x="19.269" y="14.554" width="2.988" height="3.456"/>
		</g>
		<g>
			<rect fill="#006582" x="15.716" y="16.071" width="2.987" height="1.938"/>
		</g>
		<g>
			<rect fill="#006582" x="15.716" y="13.702" width="2.987" height="1.938"/>
		</g>
		<g>
			<rect fill="#006582" x="22.688" y="12.87" width="2.987" height="1.938"/>
		</g>
		<g>
			<rect fill="#006582" x="22.688" y="15.238" width="6.373" height="1.939"/>
		</g>
		<g>
			<path fill="#006582" d="M11.893,3.441c-3.2,0-6.104,1.277-8.243,3.341C3.596,6.831,3.392,7.037,3.342,7.089C1.278,9.229,0,12.133,0,15.333
				c0,5.461,3.704,10.061,8.728,11.452l-1.314-3.179V21.3H8.22v-1.357c-0.359,0.051-0.709,0.105-1.04,0.165
				c-0.235-1.354-0.346-2.675-0.366-3.937h0.153V14.68c0-0.008,0.004-0.013,0.004-0.021l-0.143-0.002
				c0.058-1.457,0.226-2.806,0.439-4.008c1.871,0.375,4.971,0.375,4.971,0.375l0.039,2.185h0.373v-2.218
				c1.422-0.056,2.722-0.216,3.86-0.416c0.12,0.664,0.225,1.377,0.305,2.126h1.549c-0.09-0.859-0.205-1.677-0.345-2.431
				c1.115-0.257,1.974-0.523,2.497-0.703c0.487,0.726,0.881,1.518,1.17,2.358v-0.057h1.582C21.781,6.997,17.246,3.441,11.893,3.441z
				 M2.762,10.407c0.003-0.006,0.005-0.011,0.008-0.016c0.154-0.282,0.32-0.555,0.498-0.82c0.835,0.308,1.666,0.559,2.488,0.758
				c-0.233,1.292-0.415,2.749-0.474,4.327H1.549C1.65,13.126,2.07,11.685,2.762,10.407z M3.269,21.097
				c-0.959-1.432-1.565-3.115-1.711-4.928h3.714c0.023,1.356,0.146,2.778,0.408,4.244C4.608,20.665,3.78,20.921,3.269,21.097z
				 M4.284,22.367c0.446-0.136,1.021-0.297,1.712-0.457c0.192,0.792,0.427,1.594,0.712,2.4C5.805,23.785,4.99,23.128,4.284,22.367z
				 M6.062,8.843C5.466,8.699,4.866,8.527,4.264,8.322c0.079-0.085,0.975-1.151,2.499-1.998C6.541,7,6.292,7.85,6.062,8.843z
				 M11.136,9.476c-1.14-0.019-2.338-0.117-3.564-0.324C7.99,7.338,8.465,6.028,8.685,5.468c0.781-0.254,1.602-0.413,2.451-0.475
				V9.476z M12.651,9.456V4.994c0.849,0.062,1.671,0.221,2.452,0.475c0.219,0.553,0.686,1.832,1.1,3.608
				C15.152,9.257,13.95,9.402,12.651,9.456z M17.709,8.775c-0.227-0.964-0.469-1.788-0.688-2.451
				c0.928,0.529,1.76,1.198,2.479,1.976C19.039,8.442,18.436,8.61,17.709,8.775z"/>
		</g>
	</g>
</g>
<g>
</g>
<g>
</g>
<g>
</g>
<g>
</g>
<g>
</g>
<g>
</g>
<g>
</g>
<g>
</g>
<g>
</g>
<g>
</g>
<g>
</g>
<g>
</g>
<g>
</g>
<g>
</g>
<g>
</g>
</svg>
