<?xml version="1.0" encoding="UTF-8" standalone="no"?>
<!-- Created with Inkscape (http://www.inkscape.org/) -->

<svg
   sodipodi:docname="dmbon-assistant-overview.svg"
   inkscape:version="1.2.1 (ef4d3fba62, 2022-07-19, custom)"
   xml:space="preserve"
   id="svg5"
   version="1.1"
   viewBox="0 0 203.34526 101"
   height="101mm"
   width="203.34526mm"
   xmlns:inkscape="http://www.inkscape.org/namespaces/inkscape"
   xmlns:sodipodi="http://sodipodi.sourceforge.net/DTD/sodipodi-0.dtd"
   xmlns="http://www.w3.org/2000/svg"
   xmlns:svg="http://www.w3.org/2000/svg"><sodipodi:namedview
     id="namedview7"
     pagecolor="#ffffff"
     bordercolor="#000000"
     borderopacity="0.25"
     inkscape:showpageshadow="2"
     inkscape:pageopacity="0.0"
     inkscape:pagecheckerboard="0"
     inkscape:deskcolor="#d1d1d1"
     inkscape:document-units="mm"
     showgrid="true"
     showguides="true"
     inkscape:zoom="0.99276681"
     inkscape:cx="325.35334"
     inkscape:cy="224.12111"
     inkscape:window-width="1846"
     inkscape:window-height="1016"
     inkscape:window-x="0"
     inkscape:window-y="0"
     inkscape:window-maximized="1"
     inkscape:current-layer="g4576"><inkscape:grid
       type="xygrid"
       id="grid182"
       units="mm"
       spacingx="1"
       spacingy="1"
       originx="-4.4999999"
       originy="-4.5000004" /></sodipodi:namedview><defs
     id="defs2"><linearGradient
       id="linearGradient14050"
       inkscape:swatch="solid"><stop
         style="stop-color:#008b4b;stop-opacity:1;"
         offset="0"
         id="stop14048" /></linearGradient><rect
       x="1"
       y="47"
       width="51"
       height="13"
       id="rect20325" /><rect
       x="0"
       y="50"
       width="105"
       height="25"
       id="rect20265" /></defs><g
     inkscape:groupmode="layer"
     id="layer9"
     inkscape:label="dmbon-assistant"><path
       style="fill:none;stroke:#016483;stroke-width:1.35;stroke-linecap:round;stroke-linejoin:round;stroke-dasharray:none;stroke-opacity:1"
       d="m 73.941666,55 h 15"
       id="path11134"
       inkscape:label="outarrow-1"
       transform="translate(-4.5,-4.5)" /><path
       style="fill:none;stroke:#016483;stroke-width:1.35;stroke-linecap:round;stroke-linejoin:round;stroke-dasharray:none;stroke-opacity:1"
       d="m 139.5,55 h 15"
       id="path11134-6"
       inkscape:label="outarrow-2"
       transform="translate(-4.5,-4.5)" /><circle
       style="fill:none;stroke:#016483;stroke-width:1.5;stroke-linecap:square;stroke-linejoin:round;stroke-dasharray:6.00004, 3.00001;stroke-dashoffset:0;stroke-opacity:1"
       id="path11165"
       cx="115"
       cy="54.384087"
       r="24.384087"
       inkscape:label="outer-circle"
       transform="translate(-4.5,-4.5)" /><g
       inkscape:label="rulebook"
       id="layer1-3"
       transform="matrix(2.8124999,0,0,2.8124999,94.704948,33.107447)"><path
         id="path13244"
         style="fill:none;stroke:#000000;stroke-width:0.529651;stroke-linecap:square;stroke-linejoin:round;stroke-dasharray:none"
         d="m 3.3222797,8.3541802 h 5.4927027 m -5.7817923,2e-7 A 1.445448,1.3586297 0 0 0 2.0111041,8.7521139 1.445448,1.3586297 0 0 0 1.5877422,9.7128101 M 3.0331901,11.343166 A 1.445448,1.3586297 0 0 1 2.0111041,10.945233 1.445448,1.3586297 0 0 1 1.5877422,9.9845362 m 0,-6.793149 A 1.445448,1.3586297 0 0 1 3.0331901,1.8327574 m 0.2890896,1e-7 1.4499339,-1e-7 H 7.1472247 M 8.8149824,3.605468 v 7.737697 H 3.3222797 M 1.5877421,9.71281 V 4.5425611 3.4631133"
         inkscape:label="book" /><path
         style="fill:none;stroke:#000000;stroke-width:0.482091;stroke-linecap:round;stroke-linejoin:round;stroke-dasharray:none"
         d="M 4.0663263,3.6648517 H 6.530178"
         id="path9972"
         inkscape:label="booktitle" /><circle
         style="display:inline;fill:none;stroke:#008b4b;stroke-width:0.4;stroke-linecap:round;stroke-linejoin:round;stroke-dasharray:none;stroke-opacity:1"
         id="path11394"
         cx="8.7313023"
         cy="1.7645583"
         r="1.5"
         inkscape:label="inner-circle" /><circle
         style="display:inline;fill:none;stroke:#000000;stroke-width:0.1;stroke-linecap:round;stroke-linejoin:round;stroke-dasharray:none;stroke-opacity:1"
         id="path11394-9"
         cx="8.7312498"
         cy="1.7645833"
         r="1.7"
         inkscape:label="check-mark-outer-outline" /><circle
         style="display:inline;fill:none;stroke:#000000;stroke-width:0.1;stroke-linecap:round;stroke-linejoin:round;stroke-dasharray:none;stroke-opacity:1"
         id="path11394-9-7"
         cx="8.7312956"
         cy="1.7645521"
         r="1.2850747"
         inkscape:label="check-mark-inner-outline" /><path
         style="fill:none;stroke:#00784b;stroke-width:0.418937;stroke-linecap:round;stroke-linejoin:round;stroke-dasharray:none;stroke-opacity:1"
         d="M 8.0282116,1.9663614 8.458266,2.4234735 9.5334006,1.2806931"
         id="path13215"
         inkscape:label="check-mark" /></g><path
       style="fill:none;stroke:#016483;stroke-width:1.35;stroke-linecap:round;stroke-linejoin:miter;stroke-dasharray:none;stroke-dashoffset:0;stroke-opacity:1"
       d="m 83.941664,50 5.000001,5 -5.000001,4.999998"
       id="path16956"
       inkscape:label="outarrowhead-1"
       transform="translate(-4.5,-4.5)" /><path
       style="fill:none;stroke:#016483;stroke-width:1.35;stroke-linecap:round;stroke-linejoin:miter;stroke-dasharray:none;stroke-dashoffset:0;stroke-opacity:1"
       d="m 150,50 5,5 -5,4.999998"
       id="path16960"
       inkscape:label="outarrowhead-2"
       transform="translate(-4.5,-4.5)" /></g><g
     inkscape:label="heterogeneous-data"
     inkscape:groupmode="layer"
     id="layer1"
     transform="translate(-4.5,-4.5)"><g
       inkscape:groupmode="layer"
       id="layer2"
       inkscape:label="cell-1"><g
         inkscape:label="analysis"
         id="layer1-1"
         transform="translate(49.251341,9.0229169)"><ellipse
           style="fill:#000000;stroke:none;stroke-width:0.799998;stroke-linecap:butt;stroke-linejoin:round;stroke-dasharray:none"
           id="path46705"
           cx="2.0847688"
           cy="-5.3121548"
           transform="scale(1,-1)"
           rx="0.7886107"
           ry="0.78752983" /><ellipse
           style="fill:#000000;stroke:none;stroke-width:0.799998;stroke-linecap:butt;stroke-linejoin:round;stroke-dasharray:none"
           id="path46705-6"
           cx="4.7134714"
           cy="-3.2110708"
           transform="scale(1,-1)"
           rx="0.7886107"
           ry="0.78752983" /><ellipse
           style="fill:#000000;stroke:none;stroke-width:0.799998;stroke-linecap:butt;stroke-linejoin:round;stroke-dasharray:none"
           id="path46705-6-7"
           cx="7.3421726"
           cy="-4.2631197"
           transform="scale(1,-1)"
           rx="0.7886107"
           ry="0.78752983" /><ellipse
           style="fill:#000000;stroke:none;stroke-width:0.799998;stroke-linecap:butt;stroke-linejoin:round;stroke-dasharray:none"
           id="path46705-6-7-5"
           cx="9.9708757"
           cy="-1.6329973"
           transform="scale(1,-1)"
           rx="0.7886107"
           ry="0.78752983" /><path
           style="fill:none;fill-opacity:1;stroke:#000000;stroke-width:0.800002;stroke-linecap:butt;stroke-linejoin:bevel;stroke-dasharray:none;stroke-opacity:1"
           d="M 0.77041768,0.26458333 V 10.977083 H 11.218334"
           id="path48188"
           sodipodi:nodetypes="ccc" /><rect
           style="fill:#000000;stroke:none;stroke-width:2;stroke-linecap:square;stroke-linejoin:round;stroke-dasharray:none"
           id="rect3677"
           width="0.59611511"
           height="4.7342205"
           x="1.8218985"
           y="6.6287231"
           ry="0.26301226" /><rect
           style="fill:#000000;stroke:none;stroke-width:2;stroke-linecap:square;stroke-linejoin:round;stroke-dasharray:none"
           id="rect3677-3"
           width="0.59611511"
           height="5.2602448"
           x="3.1362493"
           y="6.1026983"
           ry="0.29223579" /><rect
           style="fill:#000000;stroke:none;stroke-width:2;stroke-linecap:square;stroke-linejoin:round;stroke-dasharray:none"
           id="rect3677-3-5"
           width="0.59611511"
           height="6.3122935"
           x="5.7649522"
           y="5.0506496"
           ry="0.35068294" /><rect
           style="fill:#000000;stroke:none;stroke-width:2;stroke-linecap:square;stroke-linejoin:round;stroke-dasharray:none"
           id="rect3679"
           width="0.59611511"
           height="6.8383179"
           x="4.4506016"
           y="4.5246253"
           ry="0.26301226" /><rect
           style="fill:#000000;stroke:none;stroke-width:2;stroke-linecap:square;stroke-linejoin:round;stroke-dasharray:none"
           id="rect3681"
           width="0.59611511"
           height="5.7862692"
           x="7.0793033"
           y="5.576674"
           ry="0.26301226" /><rect
           style="fill:#000000;stroke:none;stroke-width:2;stroke-linecap:square;stroke-linejoin:round;stroke-dasharray:none"
           id="rect3683"
           width="0.59611511"
           height="8.4163923"
           x="9.708005"
           y="2.9465516"
           ry="0.26301226" /><rect
           style="fill:#000000;stroke:none;stroke-width:2;stroke-linecap:square;stroke-linejoin:round;stroke-dasharray:none"
           id="rect3683-2"
           width="0.59611511"
           height="6.312294"
           x="8.3936539"
           y="5.0506496"
           ry="0.19725919" /><path
           style="fill:none;stroke:#000000;stroke-width:0.4;stroke-linecap:square;stroke-linejoin:round;stroke-dasharray:none;stroke-opacity:1"
           d="M 1.8218985,5.5766742 4.9763409,2.9465515"
           id="path3793" /><path
           style="fill:none;stroke:#000000;stroke-width:0.4;stroke-linecap:square;stroke-linejoin:round;stroke-dasharray:none;stroke-opacity:1"
           d="M 4.4506004,2.9465515 7.6050429,4.5246249"
           id="path3795" /><path
           style="fill:none;stroke:#000000;stroke-width:0.4;stroke-linecap:square;stroke-linejoin:round;stroke-dasharray:none;stroke-opacity:1"
           d="M 7.0793023,4.5246249 10.233745,1.3684781"
           id="path3797" /></g><circle
         style="fill:none;stroke:#000000;stroke-width:1;stroke-linecap:square;stroke-linejoin:round"
         id="path724"
         cx="55"
         cy="15"
         r="10"
         inkscape:label="circle" /><path
         style="fill:none;stroke:#000000;stroke-width:1.25;stroke-linecap:square;stroke-linejoin:round;stroke-dasharray:none;marker-end:"
         d="M 55,25.590278 V 35.03472"
         id="path799"
         inkscape:label="connection" /><circle
         style="fill:#000000;stroke:none;stroke-width:1;stroke-linecap:square;stroke-linejoin:round;fill-opacity:1"
         id="path1829"
         cx="54.999996"
         cy="35"
         r="2"
         inkscape:label="dot" /></g><circle
       style="fill:#000000;fill-opacity:1;stroke:none;stroke-width:1;stroke-linecap:square;stroke-linejoin:round"
       id="path1829-3-6-7-3"
       cx="42"
       cy="42"
       r="2"
       inkscape:label="dot" /><g
       inkscape:groupmode="layer"
       id="layer3"
       inkscape:label="cell-2"><g
         id="g5731"
         transform="translate(20.996041,21.129168)"
         inkscape:label="paper"><path
           style="fill:none;stroke:#000000;stroke-width:0.5;stroke-linecap:round;stroke-linejoin:round;stroke-dasharray:none"
           d="m 5.0741623,2.1353376 h 2.344299"
           id="path7094"
           inkscape:label="title-text"
           transform="translate(-0.05788252,-0.12916555)" /><path
           style="fill:none;stroke:#000000;stroke-width:0.35;stroke-linecap:round;stroke-linejoin:round;stroke-dasharray:none"
           d="m 3.0638293,3.3399666 h 5.584797"
           id="path7096"
           inkscape:label="line-1"
           transform="translate(-0.05788252,-0.12916555)" /><path
           style="fill:none;stroke:#000000;stroke-width:0.35;stroke-linecap:round;stroke-linejoin:round;stroke-dasharray:none"
           d="m 3.0638293,4.3033916 h 5.584797"
           id="path7106"
           inkscape:label="line-2"
           transform="translate(-0.05788252,-0.12916555)" /><path
           style="fill:none;stroke:#000000;stroke-width:0.35;stroke-linecap:round;stroke-linejoin:round;stroke-dasharray:none"
           d="m 3.0638293,5.2668146 h 5.584797"
           id="path7106-3"
           inkscape:label="line-3"
           transform="translate(-0.05788252,-0.12916555)" /><path
           style="fill:none;stroke:#000000;stroke-width:0.35;stroke-linecap:round;stroke-linejoin:round;stroke-dasharray:none"
           d="m 3.1266433,6.2302396 h 5.513097"
           id="path7106-3-6"
           inkscape:label="line-4"
           transform="translate(-0.05788252,-0.12916555)" /><path
           style="fill:none;stroke:#000000;stroke-width:0.35;stroke-linecap:round;stroke-linejoin:round;stroke-dasharray:none"
           d="m 3.0564613,7.1936626 h 1.974087"
           id="path7106-3-6-7"
           inkscape:label="line-5"
           transform="translate(-0.05788252,-0.12916555)" /><path
           style="fill:none;stroke:#000000;stroke-width:0.35;stroke-linecap:round;stroke-linejoin:round;stroke-dasharray:none"
           d="m 3.0772033,8.1570866 h 1.932603"
           id="path7106-3-6-7-5"
           inkscape:label="line-6"
           transform="translate(-0.05788252,-0.12916555)" /><path
           style="fill:none;stroke:#000000;stroke-width:0.35;stroke-linecap:round;stroke-linejoin:round;stroke-dasharray:none"
           d="m 3.0780623,9.1205106 h 1.930885"
           id="path7942"
           inkscape:label="line-7"
           transform="translate(-0.05788252,-0.12916555)" /><path
           id="rect1033"
           style="fill:none;stroke:#000000;stroke-width:0.4;stroke-linecap:butt;stroke-linejoin:bevel;stroke-dasharray:none"
           d="M 4.0408203,0.52916455 V 1.8573586 c 0,0.376455 -0.294419,0.679522 -0.660132,0.679522 v 0 l -1.2902883,1e-6"
           inkscape:label="dogs-ear-1"
           transform="translate(-0.05788252,-0.12916555)" /><path
           id="path1037"
           style="fill:none;stroke:#000000;stroke-width:0.5;stroke-linecap:round;stroke-linejoin:bevel;stroke-dasharray:none"
           d="m 4.0618413,0.52916455 h 5.105484 c 0.326718,0 0.589744,0.27276599 0.589744,0.61158095 v 9.6185055 c 0,0.338816 -0.263026,0.611581 -0.589744,0.611581 h -6.487181 c -0.3267176,0 -0.5897437,-0.272765 -0.5897437,-0.611581 V 2.5368806"
           sodipodi:nodetypes="cssssssc"
           transform="translate(-0.05788252,-0.12916555)" /><path
           style="fill:none;stroke:#000000;stroke-width:0.5;stroke-linecap:butt;stroke-linejoin:bevel;stroke-dasharray:none"
           d="M 2.0904,2.5368806 4.0618413,0.52916455"
           id="path1094"
           sodipodi:nodetypes="cc"
           transform="translate(-0.05788252,-0.12916555)" /><rect
           style="fill:none;stroke:#000000;stroke-width:0.4;stroke-linecap:butt;stroke-linejoin:bevel;stroke-dasharray:none"
           id="rect1824"
           width="3.2138202"
           height="3.0127754"
           x="5.6605315"
           y="6.9531798"
           ry="0.33475283"
           transform="translate(-0.05788252,-0.12916555)" /><path
           style="fill:none;stroke:#000000;stroke-width:0.4;stroke-linecap:butt;stroke-linejoin:round;stroke-dasharray:none"
           d="m 5.6332763,8.7150796 0.991402,-0.953594 1.981508,2.181631"
           id="path1826"
           sodipodi:nodetypes="ccc"
           transform="translate(-0.05788252,-0.12916555)" /><path
           style="fill:none;stroke:#000000;stroke-width:0.35;stroke-linecap:square;stroke-linejoin:round;stroke-dasharray:none"
           d="m 7.6239143,8.8637206 0.538181,-0.514377 0.676548,0.734824"
           id="path1828"
           sodipodi:nodetypes="ccc"
           transform="translate(-0.05788252,-0.12916555)" /></g><circle
         style="fill:none;stroke:#000000;stroke-width:1;stroke-linecap:square;stroke-linejoin:round"
         id="path732"
         cx="27"
         cy="27"
         r="10"
         inkscape:label="circle" /><path
         style="fill:none;stroke:#000000;stroke-width:1.25;stroke-linecap:square;stroke-linejoin:round;stroke-dasharray:none;marker-end:"
         d="m 34.543033,34.543033 6.913934,6.913934"
         id="path801"
         inkscape:label="connection" /></g><circle
       style="fill:#000000;fill-opacity:1;stroke:none;stroke-width:1;stroke-linecap:square;stroke-linejoin:round"
       id="path1829-3-6-7"
       cx="36"
       cy="55"
       r="2"
       inkscape:label="dot" /><g
       inkscape:groupmode="layer"
       id="layer4"
       inkscape:label="cell-3"><path
         style="fill:none;stroke:#000000;stroke-width:1.25;stroke-linecap:square;stroke-linejoin:round;stroke-dasharray:none;marker-end:"
         d="M 25.590278,55 H 35.03472"
         id="path809"
         inkscape:label="connection" /><circle
         style="fill:none;stroke:#000000;stroke-width:1;stroke-linecap:square;stroke-linejoin:round"
         id="path730"
         cx="15"
         cy="55"
         r="10"
         inkscape:label="circle" /><g
         inkscape:label="database"
         id="layer1-62"
         transform="translate(9.1839285,48.941666)"><ellipse
           style="fill:none;stroke:#000000;stroke-width:0.75;stroke-linecap:round;stroke-linejoin:bevel;stroke-dasharray:none"
           id="path51299"
           cx="5.8160715"
           cy="2.7857804"
           rx="4.5150294"
           ry="2.2566137"
           inkscape:label="top" /><path
           id="path52558"
           style="fill:none;stroke:#000000;stroke-width:0.75;stroke-linecap:round;stroke-linejoin:bevel;stroke-dasharray:none"
           d="m 1.3010417,5.9450396 a 4.5150296,2.2566137 0 0 0 4.5150303,2.256614 4.5150296,2.2566137 0 0 0 4.515029,-2.256614"
           inkscape:label="middle" /><path
           id="path52558-9"
           style="fill:none;stroke:#000000;stroke-width:0.75;stroke-linecap:round;stroke-linejoin:bevel;stroke-dasharray:none"
           d="M 1.3010417,9.1042993 A 4.5150296,2.2566137 0 0 0 5.816072,11.360913 4.5150296,2.2566137 0 0 0 10.331101,9.1042993"
           inkscape:label="bottom" /><path
           style="fill:none;stroke:#000000;stroke-width:0.75;stroke-linecap:butt;stroke-linejoin:bevel;stroke-dasharray:none"
           d="m 1.301042,2.7857803 v 6.318519"
           id="path51781"
           inkscape:label="left-side" /><path
           style="fill:none;stroke:#000000;stroke-width:0.75;stroke-linecap:butt;stroke-linejoin:bevel;stroke-dasharray:none"
           d="m 10.331102,2.7857803 v 6.318519"
           id="path51783"
           inkscape:label="right-side" /><ellipse
           style="fill:#000000;fill-opacity:1;stroke:none;stroke-width:0.250001;stroke-linecap:round;stroke-linejoin:miter;stroke-dasharray:none;stroke-opacity:1"
           id="path52588"
           cx="3.1070542"
           cy="6.1707015"
           rx="0.45150295"
           ry="0.45132267"
           inkscape:label="dot-1" /><ellipse
           style="fill:#000000;fill-opacity:1;stroke:none;stroke-width:0.250001;stroke-linecap:round;stroke-linejoin:miter;stroke-dasharray:none;stroke-opacity:1"
           id="path52588-7"
           cx="3.1070542"
           cy="9.3299618"
           rx="0.45150295"
           ry="0.45132267"
           inkscape:label="dot-2" /></g></g><g
       inkscape:groupmode="layer"
       id="layer5"
       inkscape:label="cell-4"><g
         inkscape:label="metadata"
         id="layer1-37"
         transform="matrix(1.1157289,0,0,1.1157289,20.209784,76.369963)"><path
           id="path1957"
           style="fill:none;stroke:#000000;stroke-width:1.61181;stroke-linecap:square;stroke-linejoin:round;stroke-dasharray:none;stroke-opacity:1"
           class="UnoptimicedTransforms"
           d="m 21.166667,10.42179 -1e-6,9.563299 c 0,4.142177 0.02244,6.473245 -3.800537,6.473245 H 7.7692877 c -3.9656636,0 -3.8005373,-2.437997 -3.8005373,-6.473245 V 10.42179 m -2e-7,-1.1613731 C 3.96875,7.9375 4.1239234,7.556816 5.2916667,6.6597053 L 9.5538732,3.3852947 c 3.2302498,-2.48161687 2.9650848,-2.3528102 6.0276698,0 l 4.262207,3.2744108 c 1.167743,0.8971103 1.322916,1.8971398 1.322917,2.6007114"
           inkscape:label="label-outline"
           transform="matrix(0.37050688,0,0,0.37400633,0.84151445,0.05679502)" /><path
           id="path3020"
           style="fill:none;stroke:#000000;stroke-width:1.61181;stroke-linecap:square;stroke-linejoin:round;stroke-dasharray:none;stroke-opacity:1"
           class="UnoptimicedTransforms"
           inkscape:label="back-label-outline"
           transform="matrix(0.37050688,0,0,0.37400633,1.6425648,1.0793054)"
           d="M 21.166667,9.9117728 V 20.495106 c 0,4.142173 0.02244,5.963228 -3.800538,5.963228 H 7.7692877 c -2.6036554,0 -3.4267045,-0.130582 -3.6849327,-1.994478 M 19.281599,6.2076061 19.84375,6.6597055 c 1.147063,0.9225034 1.322916,1.8971405 1.322917,2.6007114"
           sodipodi:nodetypes="csssccsc" /><path
           style="fill:none;stroke:#000000;stroke-width:0.4;stroke-linecap:round;stroke-linejoin:round;stroke-dasharray:none;stroke-opacity:1"
           d="m 4.2966178,2.8072548 -0.9977582,0.989558 0.9977582,0.989558"
           id="path2692"
           inkscape:label="left-bracket" /><path
           style="fill:none;stroke:#000000;stroke-width:0.4;stroke-linecap:round;stroke-linejoin:round;stroke-dasharray:none;stroke-opacity:1"
           d="m 6.6912375,2.8072538 0.997758,0.989559 -0.997758,0.989558"
           id="path2692-7"
           inkscape:label="right-bracket" /><path
           style="fill:none;stroke:#000000;stroke-width:0.45;stroke-linecap:round;stroke-linejoin:round;stroke-dasharray:none;stroke-opacity:1"
           d="M 4.9950486,4.8853268 5.9928065,2.7082988"
           id="path2723"
           sodipodi:nodetypes="cc"
           inkscape:label="slash" /><path
           style="fill:none;stroke:#000000;stroke-width:0.4;stroke-linecap:round;stroke-linejoin:round;stroke-dasharray:none;stroke-opacity:1"
           d="m 3.7006858,6.2047388 0.3936575,-0.428809 v 1.286427"
           id="path2725"
           inkscape:label="one-1" /><path
           style="fill:none;stroke:#000000;stroke-width:0.4;stroke-linecap:round;stroke-linejoin:round;stroke-dasharray:none;stroke-opacity:1"
           d="m 5.197323,6.2047388 0.3936575,-0.428809 v 1.286427"
           id="path2725-5"
           inkscape:label="one-2" /><path
           style="fill:none;stroke:#000000;stroke-width:0.4;stroke-linecap:round;stroke-linejoin:round;stroke-dasharray:none;stroke-opacity:1"
           d="m 5.2055274,8.1673628 0.3936581,-0.428809 v 1.286427"
           id="path2725-5-6"
           inkscape:label="one-3" /><rect
           style="fill:none;stroke:#000000;stroke-width:0.4;stroke-linecap:round;stroke-linejoin:round;stroke-dasharray:none;stroke-opacity:1"
           id="rect2812"
           width="0.76636499"
           height="1.2864259"
           x="6.4998899"
           y="5.775929"
           rx="0.3831825"
           ry="1.2319018"
           inkscape:label="zero-1" /><rect
           style="fill:none;stroke:#000000;stroke-width:0.4;stroke-linecap:round;stroke-linejoin:round;stroke-dasharray:none;stroke-opacity:1"
           id="rect2812-2"
           width="0.76636499"
           height="1.2864259"
           x="3.7220883"
           y="7.7550454"
           rx="0.3831825"
           ry="1.2319018"
           inkscape:label="zero-2" /><rect
           style="fill:none;stroke:#000000;stroke-width:0.4;stroke-linecap:round;stroke-linejoin:round;stroke-dasharray:none;stroke-opacity:1"
           id="rect2812-2-9"
           width="0.76636499"
           height="1.2864259"
           x="6.5158114"
           y="7.7550454"
           rx="0.3831825"
           ry="1.2319018"
           inkscape:label="zero-3" /><ellipse
           style="fill:none;stroke:#000000;stroke-width:0.3;stroke-linecap:round;stroke-linejoin:round;stroke-dasharray:none;stroke-opacity:1"
           id="path2949"
           cx="5.4939275"
           cy="1.520828"
           inkscape:label="circle"
           rx="0.29932743"
           ry="0.29686749" /></g><path
         style="fill:none;stroke:#000000;stroke-width:1.25;stroke-linecap:square;stroke-linejoin:round;stroke-dasharray:none"
         d="m 34.246906,75.158456 3.732233,-3.737098"
         id="path807"
         inkscape:label="connection" /><circle
         style="fill:none;stroke:#000000;stroke-width:1;stroke-linecap:square;stroke-linejoin:round"
         id="path728"
         cx="27"
         cy="83"
         r="10"
         inkscape:label="circle" /><circle
         style="fill:#000000;fill-opacity:1;stroke:none;stroke-width:1;stroke-linecap:square;stroke-linejoin:round"
         id="path1829-3-6"
         cx="38"
         cy="71.529167"
         r="2"
         inkscape:label="dot" /></g><g
       inkscape:groupmode="layer"
       id="layer6"
       inkscape:label="cell-5"><g
         id="g426"
         transform="matrix(2.333638,0,0,2.3195307,-277.15787,0.4201187)"
         style="stroke-width:0.429817"
         inkscape:label="link"><path
           id="path6273-6"
           style="fill:none;stroke:#000000;stroke-width:0.537271;stroke-linecap:round;stroke-linejoin:round;stroke-dasharray:none;stroke-opacity:1"
           d="m 142.41655,39.135829 0.38794,-0.424429 c 0.34192,-0.374049 0.93562,-0.414897 1.33118,-0.09157 l 0.11494,0.09392 c 0.39557,0.323313 0.43875,0.884729 0.0969,1.25878 l -0.98842,1.081348 c -0.33534,0.366831 -0.91282,0.413197 -1.30808,0.109888"
           inkscape:label="link-1" /><path
           id="path6273-5-4"
           style="fill:none;stroke:#000000;stroke-width:0.537271;stroke-linecap:round;stroke-linejoin:round;stroke-dasharray:none;stroke-opacity:1"
           d="m 142.28004,42.150146 -0.38795,0.424427 c -0.34191,0.374049 -0.93562,0.414897 -1.33116,0.09159 l -0.11495,-0.09392 c -0.39557,-0.323313 -0.43876,-0.884729 -0.0969,-1.258781 l 0.98842,-1.081349 c 0.33532,-0.366831 0.91281,-0.413195 1.30809,-0.109888"
           inkscape:label="link-2" /></g><circle
         style="fill:none;stroke:#000000;stroke-width:1;stroke-linecap:square;stroke-linejoin:round"
         id="path726"
         cx="55"
         cy="95"
         r="10"
         inkscape:label="circle" /><path
         style="fill:none;stroke:#000000;stroke-width:1.25;stroke-linecap:square;stroke-linejoin:round;stroke-dasharray:none;marker-end:"
         d="M 55,84.409722 V 74.965278"
         id="path805"
         inkscape:label="connection" /><circle
         style="fill:#000000;fill-opacity:1;stroke:none;stroke-width:1;stroke-linecap:square;stroke-linejoin:round"
         id="path1829-3"
         cx="55"
         cy="75"
         r="2"
         inkscape:label="dot" /></g></g><g
     inkscape:groupmode="layer"
     id="layer7"
     inkscape:label="ro-crate"><g
       id="g853"
       transform="matrix(0.31406806,0,0,0.31406806,153.48695,31.004491)"
       style="stroke-width:0.319383"
       inkscape:label="ro-crate-logo"><text
         id="text881"
         y="148.86789"
         x="33.083435"
         style="font-style:normal;font-variant:normal;font-weight:bold;font-stretch:normal;font-size:21.8915px;line-height:1.25;font-family:Ubuntu;-inkscape-font-specification:'Ubuntu, Bold';font-variant-ligatures:normal;font-variant-caps:normal;font-variant-numeric:normal;font-feature-settings:normal;text-align:start;letter-spacing:0px;word-spacing:0px;writing-mode:lr-tb;text-anchor:start;opacity:0;fill:#39989f;fill-opacity:1;stroke:none;stroke-width:0.723768"
         xml:space="preserve"><tspan
           style="font-style:normal;font-variant:normal;font-weight:bold;font-stretch:normal;font-size:21.8915px;font-family:Ubuntu;-inkscape-font-specification:'Ubuntu, Bold';font-variant-ligatures:normal;font-variant-caps:normal;font-variant-numeric:normal;font-feature-settings:normal;text-align:start;writing-mode:lr-tb;text-anchor:start;fill:#39989f;fill-opacity:1;stroke-width:0.723768"
           y="148.86789"
           x="33.083435"
           id="tspan879">RO-Crate</tspan></text><g
         id="text881-4"
         style="font-style:normal;font-variant:normal;font-weight:bold;font-stretch:normal;font-size:21.8915px;line-height:1.25;font-family:Ubuntu;-inkscape-font-specification:'Ubuntu, Bold';font-variant-ligatures:normal;font-variant-caps:normal;font-variant-numeric:normal;font-feature-settings:normal;text-align:start;letter-spacing:0px;word-spacing:0px;writing-mode:lr-tb;text-anchor:start;opacity:1;fill:#39989f;fill-opacity:1;stroke:none;stroke-width:0.723768"
         aria-label="RO-Crate"><path
           id="path4614"
           style="font-style:normal;font-variant:normal;font-weight:bold;font-stretch:normal;font-size:21.8915px;font-family:Ubuntu;-inkscape-font-specification:'Ubuntu, Bold';font-variant-ligatures:normal;font-variant-caps:normal;font-variant-numeric:normal;font-feature-settings:normal;text-align:start;writing-mode:lr-tb;text-anchor:start;fill:#39989f;fill-opacity:1;stroke-width:0.723768"
           d="m 39.278738,133.52193 q 3.415078,0 5.232075,1.22592 1.816997,1.20404 1.816997,3.76535 0,1.59808 -0.744312,2.60509 -0.72242,0.98512 -2.101587,1.5543 0.459722,0.56918 0.963228,1.31349 0.503505,0.72242 0.985118,1.53241 0.503506,0.78809 0.963228,1.66375 0.459722,0.85377 0.853769,1.68565 h -3.831017 q -0.415939,-0.74431 -0.85377,-1.51052 -0.415939,-0.7662 -0.875661,-1.48862 -0.437831,-0.72242 -0.875661,-1.35727 -0.437831,-0.65675 -0.875661,-1.18215 h -1.685648 v 5.53856 h -3.415079 v -14.95191 q 1.116468,-0.21892 2.298611,-0.30649 1.204034,-0.0876 2.14537,-0.0876 z m 0.197024,2.91157 q -0.372156,0 -0.678638,0.0219 -0.28459,0.0219 -0.547288,0.0438 v 4.1156 h 0.963227 q 1.926455,0 2.758333,-0.48161 0.831878,-0.48161 0.831878,-1.64187 0,-1.11646 -0.85377,-1.57619 -0.831878,-0.48161 -2.473742,-0.48161 z"
           inkscape:connector-curvature="0" /><path
           id="path4616"
           style="font-style:normal;font-variant:normal;font-weight:bold;font-stretch:normal;font-size:21.8915px;font-family:Ubuntu;-inkscape-font-specification:'Ubuntu, Bold';font-variant-ligatures:normal;font-variant-caps:normal;font-variant-numeric:normal;font-feature-settings:normal;text-align:start;writing-mode:lr-tb;text-anchor:start;fill:#39989f;fill-opacity:1;stroke-width:0.723768"
           d="m 51.910112,141.27153 q 0,1.11647 0.262698,2.01402 0.28459,0.89755 0.788095,1.5543 0.525397,0.63485 1.269709,0.98512 0.744312,0.35026 1.707539,0.35026 0.941336,0 1.685648,-0.35026 0.766204,-0.35027 1.269709,-0.98512 0.525397,-0.65675 0.788095,-1.5543 0.28459,-0.89755 0.28459,-2.01402 0,-1.11647 -0.28459,-2.01402 -0.262698,-0.91945 -0.788095,-1.5543 -0.503505,-0.65675 -1.269709,-1.00701 -0.744312,-0.35027 -1.685648,-0.35027 -0.963227,0 -1.707539,0.37216 -0.744312,0.35027 -1.269709,1.00701 -0.503505,0.63486 -0.788095,1.5543 -0.262698,0.89755 -0.262698,1.99213 z m 11.580619,0 q 0,1.94834 -0.591071,3.43697 -0.56918,1.46673 -1.57619,2.47374 -1.007011,0.98512 -2.408069,1.48863 -1.379166,0.5035 -2.977248,0.5035 -1.554298,0 -2.933464,-0.5035 -1.379167,-0.50351 -2.408069,-1.48863 -1.028902,-1.00701 -1.619973,-2.47374 -0.591071,-1.48863 -0.591071,-3.43697 0,-1.94835 0.612963,-3.41508 0.612962,-1.48862 1.641864,-2.49563 1.050794,-1.00701 2.408069,-1.51052 1.379166,-0.5035 2.889681,-0.5035 1.554299,0 2.933465,0.5035 1.379167,0.50351 2.408068,1.51052 1.028902,1.00701 1.619974,2.49563 0.591071,1.46673 0.591071,3.41508 z"
           inkscape:connector-curvature="0" /><path
           id="path4618"
           style="font-style:normal;font-variant:normal;font-weight:bold;font-stretch:normal;font-size:21.8915px;font-family:Ubuntu;-inkscape-font-specification:'Ubuntu, Bold';font-variant-ligatures:normal;font-variant-caps:normal;font-variant-numeric:normal;font-feature-settings:normal;text-align:start;writing-mode:lr-tb;text-anchor:start;fill:#39989f;fill-opacity:1;stroke-width:0.723768"
           d="m 65.570371,140.85559 h 6.348543 v 2.95536 h -6.348543 z"
           inkscape:connector-curvature="0" /><path
           id="path4620"
           style="font-style:normal;font-variant:normal;font-weight:bold;font-stretch:normal;font-size:21.8915px;font-family:Ubuntu;-inkscape-font-specification:'Ubuntu, Bold';font-variant-ligatures:normal;font-variant-caps:normal;font-variant-numeric:normal;font-feature-settings:normal;text-align:start;writing-mode:lr-tb;text-anchor:start;fill:#39989f;fill-opacity:1;stroke-width:0.723768"
           d="m 81.573011,149.17437 q -3.699669,0 -5.648015,-2.0578 -1.926455,-2.05781 -1.926455,-5.84504 0,-1.88267 0.591072,-3.34941 0.591071,-1.48862 1.619973,-2.49563 1.028902,-1.0289 2.451851,-1.5543 1.42295,-0.52539 3.086706,-0.52539 0.963227,0 1.751322,0.15324 0.788095,0.13135 1.379166,0.32837 0.591072,0.17513 0.985119,0.37215 0.394048,0.19703 0.56918,0.30649 l -0.985119,2.75833 q -0.700529,-0.37216 -1.641865,-0.63486 -0.919444,-0.26269 -2.101586,-0.26269 -0.788095,0 -1.554299,0.26269 -0.744312,0.2627 -1.335383,0.85377 -0.56918,0.56918 -0.919444,1.48863 -0.350265,0.91944 -0.350265,2.23293 0,1.0508 0.218915,1.97024 0.240807,0.89755 0.744312,1.5543 0.525397,0.65675 1.357275,1.05079 0.831878,0.37216 2.014021,0.37216 0.744312,0 1.335383,-0.0876 0.591071,-0.0876 1.050794,-0.19702 0.459722,-0.13135 0.809986,-0.28459 0.350265,-0.15324 0.634855,-0.28459 l 0.941335,2.73644 q -0.72242,0.43783 -2.035912,0.7881 -1.313492,0.35026 -3.042922,0.35026 z"
           inkscape:connector-curvature="0" /><path
           id="path4622"
           style="font-style:normal;font-variant:normal;font-weight:bold;font-stretch:normal;font-size:21.8915px;font-family:Ubuntu;-inkscape-font-specification:'Ubuntu, Bold';font-variant-ligatures:normal;font-variant-caps:normal;font-variant-numeric:normal;font-feature-settings:normal;text-align:start;writing-mode:lr-tb;text-anchor:start;fill:#39989f;fill-opacity:1;stroke-width:0.723768"
           d="m 95.561671,140.24263 q -0.437831,-0.10946 -1.028902,-0.21892 -0.591071,-0.13135 -1.269709,-0.13135 -0.306481,0 -0.744312,0.0657 -0.415939,0.0438 -0.634854,0.10945 v 8.8004 h -3.261838 v -10.90198 q 0.875661,-0.30648 2.057804,-0.56918 1.204034,-0.28459 2.670767,-0.28459 0.262698,0 0.634854,0.0438 0.372156,0.0219 0.744312,0.0876 0.372156,0.0438 0.744312,0.13135 0.372156,0.0657 0.634854,0.17513 z"
           inkscape:connector-curvature="0" /><path
           id="path4624"
           style="font-style:normal;font-variant:normal;font-weight:bold;font-stretch:normal;font-size:21.8915px;font-family:Ubuntu;-inkscape-font-specification:'Ubuntu, Bold';font-variant-ligatures:normal;font-variant-caps:normal;font-variant-numeric:normal;font-feature-settings:normal;text-align:start;writing-mode:lr-tb;text-anchor:start;fill:#39989f;fill-opacity:1;stroke-width:0.723768"
           d="m 102.04154,146.59117 q 0.48161,0 0.91944,-0.0219 0.43783,-0.0219 0.70053,-0.0657 v -2.47374 q -0.19702,-0.0438 -0.59107,-0.0876 -0.39405,-0.0438 -0.72242,-0.0438 -0.45972,0 -0.87566,0.0657 -0.39405,0.0438 -0.70053,0.19702 -0.30648,0.15324 -0.48162,0.41594 -0.17513,0.2627 -0.17513,0.65675 0,0.7662 0.50351,1.07268 0.52539,0.28459 1.42295,0.28459 z m -0.2627,-9.54471 q 1.44484,0 2.40807,0.32838 0.96322,0.32837 1.5324,0.94133 0.59108,0.61297 0.83188,1.48863 0.24081,0.87566 0.24081,1.94834 v 6.78638 q -0.70053,0.15324 -1.94835,0.35026 -1.24781,0.21892 -3.02103,0.21892 -1.11647,0 -2.035911,-0.19703 -0.897552,-0.19702 -1.554298,-0.63485 -0.656746,-0.45972 -1.007011,-1.18214 -0.350264,-0.72242 -0.350264,-1.77322 0,-1.00701 0.394048,-1.70754 0.415939,-0.70053 1.094576,-1.11647 0.678637,-0.41593 1.554299,-0.59107 0.875661,-0.19702 1.817001,-0.19702 0.63485,0 1.11646,0.0657 0.50351,0.0438 0.80999,0.13135 v -0.30648 q 0,-0.83188 -0.50351,-1.33538 -0.5035,-0.50351 -1.75132,-0.50351 -0.83188,0 -1.641862,0.13135 -0.809987,0.10946 -1.401058,0.32838 l -0.415939,-2.62699 q 0.28459,-0.0876 0.700529,-0.17513 0.43783,-0.10946 0.941336,-0.17513 0.503504,-0.0876 1.050794,-0.13135 0.56918,-0.0657 1.13836,-0.0657 z"
           inkscape:connector-curvature="0" /><path
           id="path4626"
           style="font-style:normal;font-variant:normal;font-weight:bold;font-stretch:normal;font-size:21.8915px;font-family:Ubuntu;-inkscape-font-specification:'Ubuntu, Bold';font-variant-ligatures:normal;font-variant-caps:normal;font-variant-numeric:normal;font-feature-settings:normal;text-align:start;writing-mode:lr-tb;text-anchor:start;fill:#39989f;fill-opacity:1;stroke-width:0.723768"
           d="m 109.63788,134.48515 3.26184,-0.52539 v 3.39319 h 3.91859 v 2.71454 h -3.91859 v 4.04994 q 0,1.0289 0.35027,1.64186 0.37215,0.61297 1.46673,0.61297 0.5254,0 1.07268,-0.0876 0.56918,-0.10946 1.02891,-0.28459 l 0.45972,2.53942 q -0.59107,0.2408 -1.31349,0.41594 -0.72242,0.17513 -1.77322,0.17513 -1.33538,0 -2.21104,-0.35027 -0.87566,-0.37215 -1.40106,-1.00701 -0.5254,-0.65674 -0.74431,-1.57619 -0.19703,-0.91944 -0.19703,-2.03591 z"
           inkscape:connector-curvature="0" /><path
           id="path4628"
           style="font-style:normal;font-variant:normal;font-weight:bold;font-stretch:normal;font-size:21.8915px;font-family:Ubuntu;-inkscape-font-specification:'Ubuntu, Bold';font-variant-ligatures:normal;font-variant-caps:normal;font-variant-numeric:normal;font-feature-settings:normal;text-align:start;writing-mode:lr-tb;text-anchor:start;fill:#39989f;fill-opacity:1;stroke-width:0.723768"
           d="m 118.48201,143.19798 q 0,-1.5324 0.45973,-2.67076 0.48161,-1.16025 1.24781,-1.92646 0.76621,-0.7662 1.75133,-1.16025 1.00701,-0.39405 2.0578,-0.39405 2.45185,0 3.8748,1.51052 1.42295,1.48862 1.42295,4.4002 0,0.28459 -0.0219,0.63485 -0.0219,0.32837 -0.0438,0.59107 h -7.39933 q 0.10946,1.00701 0.94133,1.59808 0.83188,0.59108 2.23294,0.59108 0.89755,0 1.75132,-0.15325 0.87566,-0.17513 1.42295,-0.41593 l 0.43783,2.64887 q -0.2627,0.13135 -0.70053,0.2627 -0.43783,0.13135 -0.98512,0.21891 -0.52539,0.10946 -1.13836,0.17514 -0.61296,0.0657 -1.22592,0.0657 -1.5543,0 -2.71455,-0.45972 -1.13836,-0.45972 -1.90456,-1.24782 -0.74432,-0.80999 -1.11647,-1.90456 -0.35027,-1.09458 -0.35027,-2.36429 z m 7.66204,-1.24781 q -0.0219,-0.41594 -0.15324,-0.80999 -0.10946,-0.39405 -0.37216,-0.70053 -0.2408,-0.30648 -0.63485,-0.5035 -0.37216,-0.19703 -0.94134,-0.19703 -0.54729,0 -0.94133,0.19703 -0.39405,0.17513 -0.65675,0.48161 -0.2627,0.30648 -0.41594,0.72242 -0.13135,0.39405 -0.19702,0.80999 z"
           inkscape:connector-curvature="0" /></g><g
         transform="translate(1841.8161,-101.84245)"
         id="g4576"
         style="stroke-width:0.319383"><g
           id="g4934"
           transform="matrix(0.15861502,0,0,-0.15861502,-1925.7108,333.07235)"
           style="stroke-width:0.319383"><path
             inkscape:connector-curvature="0"
             id="path285-1-0"
             d="m 1009.5861,758.84575 c -73.77092,5.79298 -139.82992,36.6562 -190.13312,88.83146 -45.55611,47.25155 -72.44251,103.88267 -80.89181,170.38339 -1.7947,14.1259 -1.776,50.752 0.033,65.3717 7.092,57.3001 27.9142,107.1191 63.2971,151.4442 9.7069,12.1602 31.93121,34.4529 43.53901,43.6732 16.1975,12.8659 34.5766,24.9525 48.9491,32.1904 5.7483,2.8948 5.8474,3.0431 7.6988,11.516 1.9271,8.8198 6.6938,14.0908 14.1979,15.7001 8.0454,1.7255 11.6524,-0.361 35.5594,-20.5693 15.4315,-13.0441 21.4586,-18.8889 23.2113,-22.5096 1.9091,-3.9435 1.9697,-10.5759 0.1336,-14.6038 -2.7225,-5.9723 -4.4675,-7.2448 -16.2898,-11.8791 -13.6921,-5.3672 -37.1306,-13.634 -43.1459,-15.2175 -10.38,-2.7325 -19.2983,2.6042 -22.446,13.4318 -0.617,2.1225 -1.3637,3.859 -1.6593,3.859 -0.9137,0 -13.3505,-8.7316 -22.742,-15.9667 -10.5161,-8.1015 -31.9389,-29.1893 -40.2389,-39.6097 -23.77231,-29.8452 -40.40681,-62.4117 -49.71001,-97.3205 -12.0025,-45.038 -11.4645,-94.3992 1.5125,-138.77773 17.8819,-61.15226 57.51971,-113.34859 112.36961,-147.97183 9.4688,-5.97705 30.4379,-16.56633 40.8514,-20.6297 31.2286,-12.1855 62.7872,-18.3504 94.06252,-18.37492 41.2595,-0.0323 77.6261,8.1956 114.3892,25.88056 69.0461,33.21471 119.6713,95.1925 138.7437,169.85669 4.8973,19.17153 7.0949,35.01393 7.7585,55.92903 1.4469,45.6048 -10.0539,91.7303 -33.1426,132.9223 -29.3907,52.4354 -75.838,94.5069 -129.8945,117.6572 -13.0257,5.5784 -30.6302,11.6116 -31.4249,10.7695 -0.5643,-0.5979 -1.3798,-11.8812 -3.0348,-41.9909 -1.2863,-23.4009 -1.241,-85.8381 0.068,-94.4256 3.4369,-22.5401 11.3942,-36.8386 49.113,-88.2517 20.4213,-27.8355 30.6087,-42.5001 37.9236,-54.5901 11.2422,-18.5812 19.3978,-37.31833 22.3481,-51.34383 1.552,-7.37787 1.5181,-25.36208 -0.058,-30.66873 -9.0457,-30.46041 -47.6066,-51.62537 -111.05,-60.95228 -21.7794,-3.20182 -33.7591,-3.95684 -63.1926,-3.98271 -36.25312,-0.0319 -55.79172,1.65788 -83.53042,7.2239 -56.6931,11.37602 -88.9927,33.34453 -93.3765,63.50987 -3.7154,25.56565 8.1694,56.20058 38.6746,99.68968 4.6117,6.5745 15.2004,21.2493 23.5305,32.6107 38.7405,52.8383 45.6816,66.2127 50.1136,96.5609 1.2526,8.5774 1.2487,9.7063 -0.1586,45.8406 -0.2584,6.6359 -0.2513,12.9361 0.016,14.0006 0.6687,2.6642 5.1899,7.4976 8.7524,9.3568 8.8319,4.6092 20.8611,-1.2871 22.85,-11.2002 1.5229,-7.5905 2.4938,-23.743 2.4819,-41.2917 -0.011,-15.9229 -0.21,-18.904 -1.8942,-28.3277 -5.8708,-32.8508 -14.6242,-49.4289 -55.8022,-105.6841 -39.7723,-54.335 -50.4182,-72.37653 -54.782,-92.83894 -3.6362,-17.05108 1.1516,-25.20056 20.5545,-34.98606 26.7821,-13.50706 63.7008,-20.38579 113.91392,-21.22455 31.4776,-0.52581 51.7713,0.87027 77.2828,5.31656 31.9414,5.56692 59.6229,16.55286 68.6047,27.22706 4.3513,5.17122 4.9725,7.41723 4.5882,16.58794 -0.4242,10.12391 -2.6131,17.40256 -9.1516,30.43046 -8.0366,16.01313 -18.5126,31.95563 -42.3199,64.40303 -50.4034,68.696 -57.0388,82.3895 -59.4326,122.6524 -1.4071,23.6669 -0.8126,59.8108 1.7638,107.2378 1.5726,28.9505 2.4912,41.3148 3.3544,45.1513 0.9426,4.1897 4.9394,9.0342 8.9601,10.8605 4.4383,2.0159 9.3564,1.67 21.9533,-1.5438 65.9048,-16.8144 123.3276,-54.5201 165.6397,-108.7647 30.1612,-38.6669 51.0136,-85.3945 59.3719,-133.045 2.9231,-16.6645 3.5039,-26.767 3.1047,-54.0023 -0.3861,-26.3429 -0.6585,-29.1574 -4.9534,-51.17483 -9.0122,-46.20079 -30.4013,-91.08666 -61.2476,-128.53048 -8.8289,-10.71714 -30.8544,-32.51512 -41.4632,-41.03463 -43.9908,-35.32762 -94.3309,-56.52082 -150.7179,-63.45229 -9.3601,-1.15061 -44.5476,-2.03323 -53.3868,-1.33912 z"
             style="fill:#000000;stroke-width:0.96057;fill-opacity:1" /><path
             inkscape:connector-curvature="0"
             style="fill:#39989f;stroke-width:1.28076"
             d="m 1341.8223,-1190.1484 c -23.665,-0.08 -34.2157,1.2458 -52.8145,6.6328 -38.0668,11.0254 -59.5558,33.3312 -61.2207,63.5468 -0.4864,8.8277 -0.352,9.7808 2.082,14.7559 8.2931,16.9504 39.7859,30.5492 81.9297,35.3789 5.0602,0.5799 10.7275,1.2289 12.5918,1.4414 1.8643,0.213 17.7701,0.2447 35.3477,0.072 33.5646,-0.3293 45.7223,-1.4557 67.0527,-6.2168 28.4905,-6.3592 48.9575,-16.8695 55.1328,-28.3106 2.3946,-4.4364 2.1885,-14.9471 -0.4629,-23.6757 -9.2566,-30.4759 -52.4051,-55.2515 -108.6484,-62.3848 -5.0603,-0.6419 -19.0054,-1.2002 -30.9902,-1.2402 z"
             transform="matrix(0.74999998,0,0,-0.74999998,6.75977,147.06053)"
             id="path287-8-3" /></g><g
           transform="matrix(0.44961734,0,0,0.44961734,-1441.0542,107.81848)"
           id="text13"
           style="font-style:normal;font-weight:normal;font-size:70.5254px;line-height:1.25;font-family:sans-serif;letter-spacing:0px;word-spacing:0px;fill:#916f6f;fill-opacity:1;stroke:none;stroke-width:2.33167"
           aria-label="{"><path
             inkscape:connector-curvature="0"
             id="path3720"
             style="font-style:normal;font-variant:normal;font-weight:normal;font-stretch:normal;font-size:338.522px;font-family:Inconsolata;-inkscape-font-specification:Inconsolata;fill:#916f6f;stroke-width:2.33167"
             d="m -891.33986,115.23347 v 18.95722 h 7.10895 c 5.75487,0 14.55643,-0.33853 21.32687,6.77043 6.77043,6.43191 8.80156,16.24904 8.80156,30.80547 0,10.49418 -1.01556,20.64983 -1.01556,33.85217 0,12.18678 1.01556,35.54478 18.61869,49.08565 14.89495,11.17122 32.15956,10.15565 53.14791,10.15565 h 12.18678 v -18.95721 h -12.5253 c -13.87939,0 -24.71209,0.67704 -33.85217,-5.75487 -12.18679,-8.12452 -13.87939,-23.01948 -13.87939,-34.52922 0,-9.14008 1.01556,-17.94165 1.01556,-28.43582 0,-35.54478 -15.572,-48.4086 -28.43582,-52.80938 10.49417,-4.40079 18.95721,-12.52531 24.03504,-22.68096 4.40078,-9.140084 5.41635,-19.295735 5.41635,-27.081734 0,-8.463042 -1.01557,-15.91052 -1.01557,-24.03504 0,-6.770434 0.67704,-23.357998 13.54087,-31.482518 9.14008,-5.754869 19.29574,-4.062261 34.19069,-4.062261 h 11.84826 V -4.2646895 h -10.49417 c -17.94165,0 -39.60704,-1.3540867 -55.85608,13.540868 -14.89496,13.5408675 -16.92609,32.4980825 -16.92609,45.3619075 0,8.124521 1.01557,15.91052 1.01557,24.035041 0,8.463042 -1.01557,20.311301 -8.80157,28.774343 -7.44747,7.786 -16.58756,7.786 -22.68095,7.786 z" /></g><g
           transform="matrix(0.44961734,0,0,0.44961734,-1441.0542,107.81848)"
           id="text13-3"
           style="font-style:normal;font-weight:normal;font-size:70.5254px;line-height:1.25;font-family:sans-serif;letter-spacing:0px;word-spacing:0px;fill:#916f6f;fill-opacity:1;stroke:none;stroke-width:2.33167"
           aria-label="}"><path
             inkscape:connector-curvature="0"
             id="path3723"
             style="font-style:normal;font-variant:normal;font-weight:normal;font-stretch:normal;font-size:338.522px;font-family:Inconsolata;-inkscape-font-specification:Inconsolata;fill:#916f6f;stroke-width:2.33167"
             d="m -538.26184,115.23348 h -6.43191 c -6.0934,0 -15.572,0 -22.68096,-7.786 -8.12452,-8.463046 -8.80157,-20.311307 -8.80157,-28.77435 0,-8.124522 0.67705,-15.910521 0.67705,-24.035043 0,-12.863826 -1.69261,-31.821042 -16.58757,-45.3619115 -16.24904,-14.894956 -37.91443,-13.5408691 -56.1946,-13.5408691 h -10.15566 V 15.031045 h 11.50974 c 14.89496,0 25.38913,-1.692609 34.1907,4.062261 13.20235,8.124521 13.87939,24.712086 13.87939,31.48252 0,8.124522 -1.01557,15.572 -1.01557,24.035043 0,7.786 0.67705,17.941652 5.07783,27.081741 5.07783,10.15565 13.87939,18.28017 24.37356,22.68095 -12.86382,4.40079 -28.77434,17.26461 -28.77434,52.80939 0,10.49418 1.01556,19.29574 1.01556,28.43583 0,11.50974 -1.69261,26.40469 -13.87939,34.52921 -9.14009,6.43192 -19.63426,5.75487 -33.51365,5.75487 h -12.5253 v 18.95722 h 12.18678 c 20.98835,0 38.25295,1.01557 52.80939,-10.15565 17.94165,-13.54087 18.95721,-36.89887 18.95721,-49.08565 0,-13.20235 -1.35408,-23.358 -1.35408,-33.85217 0,-14.55644 2.36965,-24.37357 8.80156,-30.80548 7.10896,-7.10896 15.91052,-6.77044 21.66539,-6.77044 h 6.77044 z" /></g></g></g></g><g
     inkscape:groupmode="layer"
     id="layer8"
     inkscape:label="user"
     transform="translate(-4.5,-4.5)"><ellipse
       style="fill:none;stroke:#000000;stroke-width:2.71307;stroke-linecap:butt;stroke-linejoin:bevel;stroke-dasharray:none;stroke-opacity:1"
       id="head-2"
       cx="55"
       cy="47.889877"
       rx="7.4720736"
       ry="7.1101241"
       inkscape:label="head" /><path
       style="fill:none;stroke:#000000;stroke-width:0.999996;stroke-linecap:round;stroke-linejoin:bevel;stroke-dasharray:none;stroke-opacity:1"
       d="m 0.88645828,11.15625 c 2e-7,-6.4887527 9.86174272,-6.4887527 9.86174272,0"
       id="path43144-9"
       sodipodi:nodetypes="cc"
       inkscape:label="body"
       transform="matrix(2.7661449,0,0,2.6610432,38.766099,39.410423)" /></g></svg>
