<?xml version="1.0" encoding="UTF-8" standalone="no"?>
<!-- Created with Inkscape (http://www.inkscape.org/) -->

<svg
   width="227.43134mm"
   height="81.495735mm"
   viewBox="0 0 227.43134 81.495735"
   version="1.1"
   id="svg653"
   inkscape:version="1.2.1 (ef4d3fba62, 2022-07-19, custom)"
   sodipodi:docname="envisioned-ecosystem-resized.svg"
   xml:space="preserve"
   xmlns:inkscape="http://www.inkscape.org/namespaces/inkscape"
   xmlns:sodipodi="http://sodipodi.sourceforge.net/DTD/sodipodi-0.dtd"
   xmlns="http://www.w3.org/2000/svg"
   xmlns:svg="http://www.w3.org/2000/svg"><sodipodi:namedview
     id="namedview655"
     pagecolor="#ffffff"
     bordercolor="#000000"
     borderopacity="0.25"
     inkscape:showpageshadow="2"
     inkscape:pageopacity="0.0"
     inkscape:pagecheckerboard="0"
     inkscape:deskcolor="#d1d1d1"
     inkscape:document-units="mm"
     showgrid="true"
     inkscape:zoom="1"
     inkscape:cx="371"
     inkscape:cy="111.5"
     inkscape:window-width="1846"
     inkscape:window-height="1016"
     inkscape:window-x="0"
     inkscape:window-y="0"
     inkscape:window-maximized="1"
     inkscape:current-layer="layer11"
     showguides="false"><inkscape:grid
       type="xygrid"
       id="grid1140"
       originx="-0.48923952"
       originy="-3.9882201e-09" /><sodipodi:guide
       position="69.625345,61.651985"
       orientation="1,0"
       id="guide7247"
       inkscape:locked="false" /></sodipodi:namedview><defs
     id="defs650"><rect
       x="20"
       y="420"
       width="86.876434"
       height="21.833338"
       id="rect10277" /><rect
       x="170"
       y="155"
       width="100"
       height="35.000004"
       id="rect10271" /></defs><g
     inkscape:groupmode="layer"
     id="layer5"
     inkscape:label="scientists"
     transform="translate(-0.48923952)"><ellipse
       style="fill:none;stroke:#ffffff;stroke-width:1.5;stroke-linecap:butt;stroke-linejoin:bevel;stroke-dasharray:none;stroke-opacity:1.0"
       id="head-7"
       cx="214.3125"
       cy="36.325871"
       rx="4.5381408"
       ry="4.5758705"
       inkscape:label="head-1" /><path
       style="fill:none;stroke:#ffffff;stroke-width:1.5;stroke-linecap:round;stroke-linejoin:bevel;stroke-dasharray:none;stroke-opacity:1.0"
       d="m 205.94216,49.974605 c 0,-11.112447 16.56782,-11.112447 16.56782,0"
       id="path43144-1"
       sodipodi:nodetypes="cc"
       inkscape:label="body-1" /><path
       style="fill:none;stroke:#ffffff;stroke-width:1.5;stroke-linecap:butt;stroke-linejoin:bevel;stroke-dasharray:none;stroke-opacity:1.0"
       d="m 215.18884,31.843596 a 4.5381408,4.5758705 0 0 1 3.69783,-1.92326 4.5381408,4.5758705 0 0 1 4.53814,4.57587 v 0 a 4.5381408,4.5758705 0 0 1 -4.53814,4.575871 4.5381408,4.5758705 0 0 1 -0.91236,-0.09343"
       id="head-0"
       inkscape:label="head-2" /><path
       id="path43144-3"
       style="fill:none;stroke:#ffffff;stroke-width:1.5;stroke-linecap:round;stroke-linejoin:bevel;stroke-dasharray:none;stroke-opacity:1.0"
       d="m 218.01441,39.059741 c 4.41127,-0.41814 9.15617,2.346242 9.15617,8.293129"
       inkscape:label="body-2" /></g><g
     inkscape:groupmode="layer"
     id="layer13"
     inkscape:label="answer"
     transform="translate(-0.48923952)"><g
       inkscape:label="data"
       id="layer1-5-0"
       transform="matrix(3.4576324,0,0,3.4576324,160.10356,90.30577)"
       style="stroke:#ffffff;stroke-width:0.289215;stroke-dasharray:none;stroke-opacity:1.0"><ellipse
         style="fill:none;stroke:#ffffff;stroke-width:0.289215;stroke-linecap:round;stroke-linejoin:bevel;stroke-dasharray:none;stroke-opacity:1.0"
         id="path51299-21"
         cx="9.635417"
         cy="-6.119031"
         rx="1.1658089"
         ry="0.52698648"
         inkscape:label="data-1" /><path
         id="path52558-0"
         style="fill:none;stroke:#ffffff;stroke-width:0.289215;stroke-linecap:round;stroke-linejoin:bevel;stroke-dasharray:none;stroke-opacity:1.0"
         d="m 8.4696079,-5.3812497 a 1.1658089,0.52698647 0 0 0 1.165809,0.5269865 1.1658089,0.52698647 0 0 0 1.1658091,-0.5269865"
         inkscape:label="data-2" /><path
         id="path52558-9-5"
         style="fill:none;stroke:#ffffff;stroke-width:0.289215;stroke-linecap:round;stroke-linejoin:bevel;stroke-dasharray:none;stroke-opacity:1.0"
         d="m 8.4696079,-4.6434687 a 1.1658089,0.52698647 0 0 0 1.165809,0.5269866 1.1658089,0.52698647 0 0 0 1.1658091,-0.5269866"
         inkscape:label="data-3" /><path
         style="fill:none;stroke:#ffffff;stroke-width:0.289215;stroke-linecap:butt;stroke-linejoin:bevel;stroke-dasharray:none;stroke-opacity:1.0"
         d="m 8.4696079,-6.1190309 v 1.4755622"
         id="path51781-11"
         inkscape:label="data-4" /><path
         style="display:inline;fill:none;stroke:#ffffff;stroke-width:0.289215;stroke-linecap:butt;stroke-linejoin:bevel;stroke-dasharray:none;stroke-opacity:1.0"
         d="m 10.801226,-6.1190309 v 1.4755622"
         id="path51783-08"
         inkscape:label="data-5" /><ellipse
         style="fill:#ffffff;fill-opacity:1.0;stroke:none;stroke-width:0.289215;stroke-linecap:round;stroke-linejoin:miter;stroke-dasharray:none;stroke-opacity:1"
         id="path52588-5"
         cx="8.9359312"
         cy="-5.3285513"
         rx="0.1165809"
         ry="0.10539728"
         inkscape:label="dot-2" /><ellipse
         style="fill:#ffffff;fill-opacity:1.0;stroke:none;stroke-width:0.289215;stroke-linecap:round;stroke-linejoin:miter;stroke-dasharray:none;stroke-opacity:1"
         id="path52588-7-0"
         cx="8.9359312"
         cy="-4.5907698"
         rx="0.1165809"
         ry="0.10539728"
         inkscape:label="dot-1" /></g><g
       inkscape:groupmode="layer"
       id="layer15"
       inkscape:label="table"><path
         id="rect10556"
         style="fill:none;fill-opacity:1;stroke:#ffffff;stroke-width:1;stroke-linecap:round;stroke-linejoin:miter;stroke-dasharray:none;stroke-dashoffset:0;stroke-opacity:1.0"
         inkscape:label="table-outer"
         d="m 188.18973,71.96397 h -8.14093 c -1.24029,0 -2.23878,-0.971965 -2.23878,-2.17929 v -9.806805 c 0,-1.207325 0.99849,-2.17929 2.23878,-2.17929 v 0 h 11.1939 c 1.24029,0 2.23878,0.971965 2.23878,2.17929 v 6.191124" /><path
         style="fill:none;fill-opacity:1;stroke:#ffffff;stroke-width:0.7;stroke-linecap:butt;stroke-linejoin:miter;stroke-dasharray:none;stroke-dashoffset:0;stroke-opacity:1.0"
         d="m 177.60648,60.851469 h 15.875"
         id="path10626"
         inkscape:label="bar-1" /><path
         style="fill:none;fill-opacity:1;stroke:#ffffff;stroke-width:0.7;stroke-linecap:square;stroke-linejoin:miter;stroke-dasharray:none;stroke-dashoffset:0;stroke-opacity:1.0"
         d="m 177.88476,64.555636 h 14.78927"
         id="path10634"
         inkscape:label="bar-2" /><path
         style="fill:none;fill-opacity:1;stroke:#ffffff;stroke-width:0.7;stroke-linecap:round;stroke-linejoin:miter;stroke-dasharray:none;stroke-dashoffset:0;stroke-opacity:1.0"
         d="m 178.00883,68.259803 h 10.3078"
         id="path10636"
         inkscape:label="bar-3" /><path
         style="fill:none;fill-opacity:1;stroke:#ffffff;stroke-width:0.7;stroke-linecap:square;stroke-linejoin:miter;stroke-dasharray:none;stroke-dashoffset:0;stroke-opacity:1.0"
         d="m 181.57523,61.329005 v 10.12826"
         id="path10628"
         inkscape:label="bar-4" /><path
         style="fill:none;fill-opacity:1;stroke:#ffffff;stroke-width:0.7;stroke-linecap:square;stroke-linejoin:miter;stroke-dasharray:none;stroke-dashoffset:0;stroke-opacity:1.0"
         d="M 185.54398,61.329132 V 71.506948"
         id="path10630"
         inkscape:label="bar-5" /><path
         style="fill:none;fill-opacity:1;stroke:#ffffff;stroke-width:0.7;stroke-linecap:round;stroke-linejoin:miter;stroke-dasharray:none;stroke-dashoffset:0;stroke-opacity:1.0"
         d="m 189.51273,61.343973 v 5.59228"
         id="path10632"
         inkscape:label="bar-6" /></g><path
       style="fill:none;fill-opacity:1;stroke:#ffffff;stroke-width:1;stroke-linecap:round;stroke-linejoin:miter;stroke-dasharray:none;stroke-dashoffset:0;stroke-opacity:1.0;paint-order:normal"
       d="m 194.90874,46.609832 4.57417,4.57417 -4.57417,4.57417"
       id="path106938-8"
       inkscape:label="arrow-head" /><path
       style="fill:none;fill-opacity:1;stroke:#ffffff;stroke-width:1;stroke-linecap:round;stroke-linejoin:round;stroke-dasharray:none;stroke-dashoffset:0;stroke-opacity:1.0"
       d="m 169.77332,51.184002 h 29.70959"
       id="path82056-6"
       sodipodi:nodetypes="cc"
       inkscape:label="arrow-base" /></g><g
     inkscape:groupmode="layer"
     id="layer12"
     inkscape:label="query"
     transform="translate(-0.48923952)"><g
       inkscape:label="query-icon"
       id="layer1-59"
       transform="matrix(1.2114702,0,0,1.2108775,177.09839,13.584389)"
       style="stroke-width:0.221993"><path
         style="fill:none;stroke:#ffffff;stroke-width:0.619234;stroke-linecap:round;stroke-linejoin:round;stroke-dasharray:none;stroke-opacity:1.0"
         d="M 11.90625,10.583333 V 11.90625"
         id="path83544"
         inkscape:label="book-10" /><path
         style="fill:none;stroke:#ffffff;stroke-width:0.619234;stroke-linecap:round;stroke-linejoin:round;stroke-dasharray:none;stroke-opacity:1.0"
         d="M 10.583333,10.583333 V 11.90625"
         id="path84058"
         inkscape:label="book-9" /><path
         style="fill:none;stroke:#ffffff;stroke-width:0.619234;stroke-linecap:round;stroke-linejoin:round;stroke-dasharray:none;stroke-opacity:1.0"
         d="M 9.2604166,10.583333 V 11.90625"
         id="path84060"
         inkscape:label="book-8" /><path
         style="fill:none;stroke:#ffffff;stroke-width:0.619234;stroke-linecap:round;stroke-linejoin:round;stroke-dasharray:none;stroke-opacity:1.0"
         d="M 11.90625,6.6145832 V 7.9374999"
         id="path83542"
         inkscape:label="book-7" /><path
         style="fill:none;stroke:#ffffff;stroke-width:0.619234;stroke-linecap:round;stroke-linejoin:round;stroke-dasharray:none;stroke-opacity:1.0"
         d="M 10.583333,6.6145832 V 7.9374999"
         id="path84056"
         inkscape:label="book-6" /><path
         style="fill:none;stroke:#ffffff;stroke-width:0.619234;stroke-linecap:round;stroke-linejoin:round;stroke-dasharray:none;stroke-opacity:1.0"
         d="M 9.2604166,6.6145832 V 7.9374999"
         id="path84062"
         inkscape:label="book-5" /><path
         style="fill:none;stroke:#ffffff;stroke-width:0.619234;stroke-linecap:round;stroke-linejoin:round;stroke-dasharray:none;stroke-opacity:1.0"
         d="M 11.90625,2.6458333 V 3.96875"
         id="path83538"
         inkscape:label="book-4" /><path
         style="fill:none;stroke:#ffffff;stroke-width:0.619234;stroke-linecap:round;stroke-linejoin:round;stroke-dasharray:none;stroke-opacity:1.0"
         d="M 10.583333,2.6458333 V 3.96875"
         id="path84054"
         inkscape:label="book-3" /><path
         style="fill:none;stroke:#ffffff;stroke-width:0.619234;stroke-linecap:round;stroke-linejoin:round;stroke-dasharray:none;stroke-opacity:1.0"
         d="M 9.2604166,2.6458333 V 3.96875"
         id="path84064"
         inkscape:label="book-2" /><path
         style="fill:none;stroke:#ffffff;stroke-width:0.619234;stroke-linecap:round;stroke-linejoin:round;stroke-dasharray:none;stroke-opacity:1.0"
         d="M 7.9374999,2.6458333 V 3.96875"
         id="path84066"
         inkscape:label="book-1" /><path
         style="fill:none;stroke:#ffffff;stroke-width:0.660516;stroke-linecap:round;stroke-linejoin:round;stroke-dasharray:none;stroke-opacity:1.0"
         d="M 13.229167,5.2916666 H 2.6458333"
         id="path84050"
         inkscape:label="shelf-5" /><path
         style="fill:none;stroke:#ffffff;stroke-width:0.660516;stroke-linecap:round;stroke-linejoin:round;stroke-dasharray:none;stroke-opacity:1.0"
         d="M 13.229167,9.2604166 H 9.2604166"
         id="path84048"
         inkscape:label="shelf-4" /><path
         style="fill:none;stroke:#ffffff;stroke-width:0.660516;stroke-linecap:round;stroke-linejoin:round;stroke-dasharray:none;stroke-opacity:1.0"
         d="M 13.229167,1.3229166 V 13.229167"
         id="path83546"
         inkscape:label="shelf-3" /><path
         style="fill:none;stroke:#ffffff;stroke-width:0.660516;stroke-linecap:round;stroke-linejoin:round;stroke-dasharray:none;stroke-opacity:1.0"
         d="M 13.229167,13.229167 H 4.4979167"
         id="path84046"
         sodipodi:nodetypes="cc"
         inkscape:label="shelf-2" /><path
         style="fill:none;stroke:#ffffff;stroke-width:0.660516;stroke-linecap:round;stroke-linejoin:round;stroke-dasharray:none;stroke-opacity:1.0"
         d="M 2.6458333,6.0854167 V 1.3229166 l 10.5833337,10e-8"
         id="path84052"
         sodipodi:nodetypes="ccc"
         inkscape:label="shelf-1" /><path
         id="rect83548"
         style="fill:none;stroke:#ffffff;stroke-width:0.495387;stroke-linecap:round;stroke-linejoin:round;stroke-dasharray:none;stroke-opacity:1.0"
         d="m 2.6488871,11.305818 -2.06099851,2.205985 c -0.27963341,0.29931 -0.26407534,0.765306 0.035235,1.044939 0.29931,0.279633 0.76530671,0.263498 1.04494011,-0.03581 l 2.1609296,-2.31285 A 2.9574865,2.9574865 0 0 1 3.6695666,12.136456 2.9574865,2.9574865 0 0 1 3.4991642,12.04519 2.9574865,2.9574865 0 0 1 3.3345387,11.942949 2.9574865,2.9574865 0 0 1 3.1774219,11.830309 2.9574865,2.9574865 0 0 1 3.0278145,11.707274 2.9574865,2.9574865 0 0 1 2.886872,11.574996 2.9574865,2.9574865 0 0 1 2.7545937,11.434052 2.9574865,2.9574865 0 0 1 2.6488871,11.305818 Z"
         inkscape:label="magnifying-glass-handle" /><circle
         style="fill:none;stroke:#ffffff;stroke-width:0.825645;stroke-linecap:round;stroke-linejoin:round;stroke-dasharray:none;stroke-opacity:1.0"
         id="path84044"
         cx="5.2014508"
         cy="9.260417"
         r="2.9574864"
         inkscape:label="magnifying-glass" /><path
         fill="#000000"
         d="m 6.0185009,8.5340435 a 0.92606812,0.92606812 0 0 0 -1.72806,-0.4630209 0.26462588,0.26462588 0 0 0 0.45837,0.2645834 0.39757879,0.39757879 0 0 1 0.343649,-0.1984375 0.396875,0.396875 0 1 1 0,0.79375 h -6.46e-4 a 0.25131183,0.25131183 0 0 0 -0.05008,0.010239 0.27299973,0.27299973 0 0 0 -0.05255,0.010755 0.26001927,0.26001927 0 0 0 -0.04115,0.027741 0.2667344,0.2667344 0 0 0 -0.04286,0.029038 0.265811,0.265811 0 0 0 -0.03097,0.045958 0.2587334,0.2587334 0 0 0 -0.02558,0.038145 0.27054175,0.27054175 0 0 0 -0.01134,0.056068 0.25094935,0.25094935 0 0 0 -0.0094,0.046638 v 0.2645833 l 6.14e-4,0.003 2.91e-4,0.129934 a 0.26462567,0.26462567 0 0 0 0.264583,0.263942 h 6.45e-4 a 0.26459921,0.26459921 0 0 0 0.263938,-0.265229 l -4.05e-4,-0.17499 a 0.92435627,0.92435627 0 0 0 0.660951,-0.8826973 z m -1.111948,1.7965195 a 0.26458333,0.26458333 0 0 0 0.185131,0.452438 0.27410833,0.27410833 0 0 0 0.187974,-0.07673 0.26859706,0.26859706 0 0 0 0,-0.375687 0.27364531,0.27364531 0 0 0 -0.373105,-2.1e-5 z"
         id="path84447"
         style="stroke-width:0.0587356;fill-opacity:1.0;fill:#ffffff"
         inkscape:label="question-mark" /></g><path
       style="fill:none;fill-opacity:1;stroke:#ffffff;stroke-width:1;stroke-linecap:round;stroke-linejoin:round;stroke-dasharray:none;stroke-dashoffset:0;stroke-opacity:1.0"
       d="M 199.48291,35.309002 H 169.77332"
       id="path82056"
       sodipodi:nodetypes="cc"
       inkscape:label="arrow-base" /><path
       style="fill:none;fill-opacity:1;stroke:#ffffff;stroke-width:1;stroke-linecap:round;stroke-linejoin:miter;stroke-dasharray:none;stroke-dashoffset:0;stroke-opacity:1.0;paint-order:normal"
       d="m 174.34749,30.734832 -4.57417,4.57417 4.57417,4.57417"
       id="path106938"
       inkscape:label="arrow-head" /></g><g
     inkscape:groupmode="layer"
     id="layer11"
     inkscape:label="upload"
     transform="translate(-0.48923952)"><path
       style="fill:none;stroke:#ffffff;stroke-width:1;stroke-linecap:round;stroke-linejoin:round;stroke-dasharray:none;stroke-dashoffset:0;stroke-opacity:1.0"
       d="M 43.65625,41.671874 H 74.083333"
       id="path8798"
       inkscape:label="arrow-base" /><path
       style="fill:none;stroke:#ffffff;stroke-width:1;stroke-linecap:round;stroke-linejoin:miter;stroke-dasharray:none;stroke-dashoffset:0;stroke-opacity:1.0"
       d="m 68.791667,37.703125 5.291666,3.968749 -5.291666,3.968751"
       id="path8807"
       sodipodi:nodetypes="ccc"
       inkscape:label="arrow-head" /><path
       style="fill:none;stroke:#ffffff;stroke-width:1.7;stroke-linecap:round;stroke-linejoin:round;stroke-dasharray:none;stroke-dashoffset:0;stroke-opacity:1.0"
       d="m 64.822917,27.781249 v 6.614584 H 51.59375 v -6.614584"
       id="path10263"
       sodipodi:nodetypes="cccc"
       inkscape:label="upload-base" /><path
       style="fill:none;stroke:#ffffff;stroke-width:1.5;stroke-linecap:round;stroke-linejoin:round;stroke-dasharray:none;stroke-dashoffset:0;stroke-opacity:1.0"
       d="M 58.208334,31.088541 V 19.182291"
       id="path10265"
       inkscape:label="upload-arrow-base" /><path
       style="fill:none;stroke:#ffffff;stroke-width:1.5;stroke-linecap:round;stroke-linejoin:miter;stroke-dasharray:none;stroke-dashoffset:0;stroke-opacity:1.0"
       d="m 54.239584,23.151041 3.96875,-3.96875 3.96875,3.96875"
       id="path10267"
       inkscape:label="upload-arrow-head" /></g><g
     inkscape:groupmode="layer"
     id="layer6"
     inkscape:label="webpages"
     transform="translate(-0.48923952)"><g
       inkscape:groupmode="layer"
       id="layer7"
       inkscape:label="page-1"><rect
         style="fill:none;stroke:#ffffff;stroke-width:0.499999;stroke-linecap:round;stroke-linejoin:round;stroke-dasharray:none;stroke-opacity:1.0"
         id="rect55401"
         width="4.6496964"
         height="3.8747468"
         x="100.98589"
         y="17.706627"
         ry="0.43788961"
         rx="0.23140457"
         inkscape:label="image" /><rect
         style="fill:none;stroke:#ffffff;stroke-width:0.75;stroke-linecap:round;stroke-linejoin:round;stroke-dasharray:none;stroke-opacity:1.0"
         id="rect55313"
         width="17.822227"
         height="17.529606"
         x="90.662773"
         y="12.369079"
         ry="3.4190843"
         inkscape:label="outer-page" /><path
         style="fill:none;stroke:#ffffff;stroke-width:0.75;stroke-linecap:round;stroke-linejoin:round;stroke-dasharray:none;stroke-opacity:1.0"
         d="M 90.668617,15.875 H 108.47917"
         id="path55315"
         inkscape:label="horizontal-line" /><ellipse
         style="fill:#ffffff;fill-opacity:1.0;stroke:none;stroke-width:0.306585;stroke-linejoin:miter;stroke-dasharray:none;stroke-dashoffset:0;stroke-opacity:1"
         id="path20553-2"
         cx="94.078979"
         cy="14.12204"
         rx="0.61146712"
         ry="0.611467"
         inkscape:label="dot-1" /><ellipse
         style="fill:#ffffff;fill-opacity:1.0;stroke:none;stroke-width:0.306585;stroke-linejoin:miter;stroke-dasharray:none;stroke-dashoffset:0;stroke-opacity:1"
         id="path20553-6-9"
         cx="96.533127"
         cy="14.12204"
         rx="0.61146712"
         ry="0.611467"
         inkscape:label="dot-2" /><ellipse
         style="fill:#ffffff;fill-opacity:1.0;stroke:none;stroke-width:0.306585;stroke-linejoin:miter;stroke-dasharray:none;stroke-dashoffset:0;stroke-opacity:1"
         id="path20553-6-2-3"
         cx="98.987274"
         cy="14.12204"
         rx="0.61146712"
         ry="0.611467"
         inkscape:label="dot-3" /><path
         style="fill:none;stroke:#ffffff;stroke-width:0.499999;stroke-linecap:round;stroke-linejoin:round;stroke-dasharray:none;stroke-opacity:1.0"
         d="m 93.446917,19.576879 h 5.81211"
         id="path55391"
         inkscape:label="text-1" /><path
         style="fill:none;stroke:#ffffff;stroke-width:0.499999;stroke-linecap:round;stroke-linejoin:round;stroke-dasharray:none;stroke-opacity:1.0"
         d="m 93.446917,21.514253 h 5.81211"
         id="path55393"
         inkscape:label="text-2" /><path
         style="fill:none;stroke:#ffffff;stroke-width:0.499999;stroke-linecap:round;stroke-linejoin:round;stroke-dasharray:none;stroke-opacity:1.0"
         d="m 93.387197,23.451627 h 8.847833"
         id="path55395"
         inkscape:label="text-3" /><path
         style="fill:none;stroke:#ffffff;stroke-width:0.499999;stroke-linecap:round;stroke-linejoin:round;stroke-dasharray:none;stroke-opacity:1.0"
         d="m 93.446917,25.388999 h 3.87474"
         id="path55397"
         inkscape:label="text-4" /><path
         style="fill:none;stroke:#ffffff;stroke-width:0.499999;stroke-linecap:round;stroke-linejoin:round;stroke-dasharray:none;stroke-opacity:1.0"
         d="m 93.446917,27.326372 h 6.33256"
         id="path55399"
         inkscape:label="text-5" /><path
         id="path6273"
         style="fill:none;stroke:#ffffff;stroke-width:0.7;stroke-linecap:round;stroke-linejoin:round;stroke-dasharray:none;stroke-opacity:1.0"
         d="m 103.41676,24.784613 0.33147,-0.388412 c 0.29214,-0.34231 0.79941,-0.379691 1.13739,-0.08381 l 0.0982,0.08595 c 0.33798,0.295877 0.37489,0.809653 0.0828,1.151963 l -0.84453,0.989587 c -0.2865,0.335704 -0.77992,0.378135 -1.11764,0.10057"
         inkscape:label="link-1" /><path
         id="path6273-5"
         style="fill:none;stroke:#ffffff;stroke-width:0.7;stroke-linecap:round;stroke-linejoin:round;stroke-dasharray:none;stroke-opacity:1.0"
         d="m 103.30014,27.543142 -0.33148,0.388412 c -0.29213,0.342309 -0.7994,0.37969 -1.13738,0.08381 l -0.0982,-0.08595 c -0.33798,-0.295877 -0.37489,-0.809653 -0.0828,-1.151963 l 0.84453,-0.989587 c 0.2865,-0.335704 0.77991,-0.378134 1.11764,-0.10057"
         inkscape:label="link-2" /></g><g
       inkscape:groupmode="layer"
       id="layer8"
       inkscape:label="page-2"><rect
         style="fill:none;stroke:#ffffff;stroke-width:0.499999;stroke-linecap:round;stroke-linejoin:round;stroke-dasharray:none;stroke-opacity:1.0"
         id="rect55401-9"
         width="4.6496964"
         height="3.8747468"
         x="139.57478"
         y="32.114994"
         ry="0.43788961"
         rx="0.23140457"
         inkscape:label="image" /><rect
         style="fill:none;stroke:#ffffff;stroke-width:0.75;stroke-linecap:round;stroke-linejoin:round;stroke-dasharray:none;stroke-opacity:1.0"
         id="rect55313-2"
         width="17.822227"
         height="17.529606"
         x="129.25166"
         y="26.777451"
         ry="3.4190843"
         inkscape:label="outer-page" /><path
         style="fill:none;stroke:#ffffff;stroke-width:0.75;stroke-linecap:round;stroke-linejoin:round;stroke-dasharray:none;stroke-opacity:1.0"
         d="m 129.25751,30.283369 h 17.81054"
         id="path55315-2"
         inkscape:label="horizontal-line" /><ellipse
         style="fill:#ffffff;fill-opacity:1.0;stroke:none;stroke-width:0.306585;stroke-linejoin:miter;stroke-dasharray:none;stroke-dashoffset:0;stroke-opacity:1"
         id="path20553-2-8"
         cx="132.66788"
         cy="28.530409"
         rx="0.61146712"
         ry="0.611467"
         inkscape:label="dot-1" /><ellipse
         style="fill:#ffffff;fill-opacity:1.0;stroke:none;stroke-width:0.306585;stroke-linejoin:miter;stroke-dasharray:none;stroke-dashoffset:0;stroke-opacity:1"
         id="path20553-6-9-9"
         cx="135.12201"
         cy="28.530409"
         rx="0.61146712"
         ry="0.611467"
         inkscape:label="dot-2" /><ellipse
         style="fill:#ffffff;fill-opacity:1.0;stroke:none;stroke-width:0.306585;stroke-linejoin:miter;stroke-dasharray:none;stroke-dashoffset:0;stroke-opacity:1"
         id="path20553-6-2-3-7"
         cx="137.57616"
         cy="28.530409"
         rx="0.61146712"
         ry="0.611467"
         inkscape:label="dot-3" /><path
         style="fill:none;stroke:#ffffff;stroke-width:0.499999;stroke-linecap:round;stroke-linejoin:round;stroke-dasharray:none;stroke-opacity:1.0"
         d="m 132.03581,33.985248 h 5.81211"
         id="path55391-3"
         inkscape:label="text-1" /><path
         style="fill:none;stroke:#ffffff;stroke-width:0.499999;stroke-linecap:round;stroke-linejoin:round;stroke-dasharray:none;stroke-opacity:1.0"
         d="m 132.03581,35.922622 h 5.81211"
         id="path55393-6"
         inkscape:label="text-2" /><path
         style="fill:none;stroke:#ffffff;stroke-width:0.499999;stroke-linecap:round;stroke-linejoin:round;stroke-dasharray:none;stroke-opacity:1.0"
         d="m 131.97609,37.859996 h 8.84783"
         id="path55395-1"
         inkscape:label="text-3" /><path
         style="fill:none;stroke:#ffffff;stroke-width:0.499999;stroke-linecap:round;stroke-linejoin:round;stroke-dasharray:none;stroke-opacity:1.0"
         d="m 132.03581,39.797368 h 3.87474"
         id="path55397-2"
         inkscape:label="text-4" /><path
         style="fill:none;stroke:#ffffff;stroke-width:0.499999;stroke-linecap:round;stroke-linejoin:round;stroke-dasharray:none;stroke-opacity:1.0"
         d="m 132.03581,41.734741 h 6.33256"
         id="path55399-9"
         inkscape:label="text-5" /><path
         id="path6273-6"
         style="fill:none;stroke:#ffffff;stroke-width:0.7;stroke-linecap:round;stroke-linejoin:round;stroke-dasharray:none;stroke-opacity:1.0"
         d="m 142.08596,39.069971 0.33147,-0.388412 c 0.29214,-0.34231 0.79941,-0.379691 1.13739,-0.08381 l 0.0982,0.08595 c 0.33798,0.295877 0.37489,0.809653 0.0828,1.151963 l -0.84453,0.989587 c -0.2865,0.335704 -0.77992,0.378135 -1.11764,0.10057"
         inkscape:label="link-1" /><path
         id="path6273-5-4"
         style="fill:none;stroke:#ffffff;stroke-width:0.7;stroke-linecap:round;stroke-linejoin:round;stroke-dasharray:none;stroke-opacity:1.0"
         d="m 141.96934,41.8285 -0.33148,0.388412 c -0.29213,0.342309 -0.7994,0.37969 -1.13738,0.08381 l -0.0982,-0.08595 c -0.33798,-0.295877 -0.37489,-0.809653 -0.0828,-1.151963 l 0.84453,-0.989587 c 0.2865,-0.335704 0.77991,-0.378134 1.11764,-0.10057"
         inkscape:label="link-2" /></g><g
       inkscape:groupmode="layer"
       id="layer9"
       inkscape:label="page-3"><rect
         style="fill:none;stroke:#ffffff;stroke-width:0.499999;stroke-linecap:round;stroke-linejoin:round;stroke-dasharray:none;stroke-opacity:1.0"
         id="rect55401-94"
         width="4.6496964"
         height="3.8747468"
         x="109.14767"
         y="61.219162"
         ry="0.43788961"
         rx="0.23140457"
         inkscape:label="image" /><rect
         style="fill:none;stroke:#ffffff;stroke-width:0.75;stroke-linecap:round;stroke-linejoin:round;stroke-dasharray:none;stroke-opacity:1.0"
         id="rect55313-7"
         width="17.822227"
         height="17.529606"
         x="98.82457"
         y="55.881615"
         ry="3.4190843"
         inkscape:label="outer-page" /><path
         style="fill:none;stroke:#ffffff;stroke-width:0.75;stroke-linecap:round;stroke-linejoin:round;stroke-dasharray:none;stroke-opacity:1.0"
         d="M 98.830407,59.387539 H 116.64096"
         id="path55315-8"
         inkscape:label="horizontal-line" /><ellipse
         style="fill:#ffffff;fill-opacity:1.0;stroke:none;stroke-width:0.306585;stroke-linejoin:miter;stroke-dasharray:none;stroke-dashoffset:0;stroke-opacity:1"
         id="path20553-2-4"
         cx="102.24078"
         cy="57.634575"
         rx="0.61146712"
         ry="0.611467"
         inkscape:label="dot-1" /><ellipse
         style="fill:#ffffff;fill-opacity:1.0;stroke:none;stroke-width:0.306585;stroke-linejoin:miter;stroke-dasharray:none;stroke-dashoffset:0;stroke-opacity:1"
         id="path20553-6-9-5"
         cx="104.69493"
         cy="57.634575"
         rx="0.61146712"
         ry="0.611467"
         inkscape:label="dot-2" /><ellipse
         style="fill:#ffffff;fill-opacity:1.0;stroke:none;stroke-width:0.306585;stroke-linejoin:miter;stroke-dasharray:none;stroke-dashoffset:0;stroke-opacity:1"
         id="path20553-6-2-3-0"
         cx="107.14907"
         cy="57.634575"
         rx="0.61146712"
         ry="0.611467"
         inkscape:label="dot-3" /><path
         style="fill:none;stroke:#ffffff;stroke-width:0.499999;stroke-linecap:round;stroke-linejoin:round;stroke-dasharray:none;stroke-opacity:1.0"
         d="m 101.6087,63.089418 h 5.81213"
         id="path55391-36"
         inkscape:label="text-1" /><path
         style="fill:none;stroke:#ffffff;stroke-width:0.499999;stroke-linecap:round;stroke-linejoin:round;stroke-dasharray:none;stroke-opacity:1.0"
         d="m 101.6087,65.026792 h 5.81213"
         id="path55393-1"
         inkscape:label="text-2" /><path
         style="fill:none;stroke:#ffffff;stroke-width:0.499999;stroke-linecap:round;stroke-linejoin:round;stroke-dasharray:none;stroke-opacity:1.0"
         d="m 101.54899,66.964166 h 8.84784"
         id="path55395-0"
         inkscape:label="text-3" /><path
         style="fill:none;stroke:#ffffff;stroke-width:0.499999;stroke-linecap:round;stroke-linejoin:round;stroke-dasharray:none;stroke-opacity:1.0"
         d="m 101.6087,68.901538 h 3.87475"
         id="path55397-6"
         inkscape:label="text-4" /><path
         style="fill:none;stroke:#ffffff;stroke-width:0.499999;stroke-linecap:round;stroke-linejoin:round;stroke-dasharray:none;stroke-opacity:1.0"
         d="m 101.6087,70.838911 h 6.33258"
         id="path55399-3"
         inkscape:label="text-5" /><path
         id="path6273-62"
         style="fill:none;stroke:#ffffff;stroke-width:0.7;stroke-linecap:round;stroke-linejoin:round;stroke-dasharray:none;stroke-opacity:1.0"
         d="m 111.64209,68.345094 0.33147,-0.388412 c 0.29214,-0.34231 0.79941,-0.379691 1.13739,-0.08381 l 0.0982,0.08595 c 0.33798,0.295877 0.37489,0.809653 0.0828,1.151963 l -0.84453,0.989587 c -0.2865,0.335704 -0.77992,0.378135 -1.11764,0.10057"
         inkscape:label="link-1" /><path
         id="path6273-5-5"
         style="fill:none;stroke:#ffffff;stroke-width:0.7;stroke-linecap:round;stroke-linejoin:round;stroke-dasharray:none;stroke-opacity:1.0"
         d="m 111.52547,71.103623 -0.33148,0.388412 c -0.29213,0.342309 -0.7994,0.37969 -1.13738,0.08381 l -0.0982,-0.08595 c -0.33798,-0.295877 -0.37489,-0.809653 -0.0828,-1.151963 l 0.84453,-0.989587 c 0.2865,-0.335704 0.77991,-0.378134 1.11764,-0.10057"
         inkscape:label="link-2" /></g><path
       id="rect7244"
       style="fill:none;stroke:#ffffff;stroke-width:0.35;stroke-linecap:round;stroke-linejoin:round;stroke-dasharray:0.7, 0.7;stroke-dashoffset:0;stroke-opacity:1.0"
       inkscape:label="frame"
       d="m 159.55015,10.161256 v 63.221981 c 0,4.39737 -3.54013,7.9375 -7.9375,7.9375 h -63.5 c -4.397371,0 -7.9375,-3.54013 -7.9375,-7.9375 v -63.5 c 0,-4.397371 3.540129,-7.9375 7.9375,-7.9375 v 0 h 63.5 c 0.3368,0 0.66858,0.020768 0.99412,0.061098" /><path
       style="fill:none;stroke:#ffffff;stroke-width:1;stroke-linecap:round;stroke-linejoin:round;stroke-dasharray:none;stroke-opacity:1.0"
       d="M 156.71661,0.50019104 A 4.0639382,4.1602799 0 0 0 152.68864,4.12419 2.7092921,2.7735198 0 0 0 152.38173,4.1054 a 2.7092921,2.7735198 0 0 0 -2.70927,2.773531 2.7092921,2.7735198 0 0 0 2.70927,2.773531 h 7.58603 0.54187 v -0.0475 a 3.2511505,3.3282242 0 0 0 2.70926,-3.28055 3.2511505,3.3282242 0 0 0 -2.76113,-3.290306 4.0639382,4.1602799 0 0 0 -3.74115,-2.53410596 z"
       id="cloud" /></g><g
     inkscape:groupmode="layer"
     id="layer2"
     inkscape:label="scientist-table"
     transform="translate(-0.48923952)"><g
       inkscape:label="scientist"
       id="layer1-1"
       transform="matrix(3.4576324,0,0,3.4576324,18.802278,21.553827)"
       style="fill:none;stroke:#ffffff;stroke-width:0.433823;stroke-dasharray:none;stroke-opacity:1.0"><ellipse
         style="fill:none;stroke:#ffffff;stroke-width:0.433823;stroke-linecap:butt;stroke-linejoin:bevel;stroke-dasharray:none;stroke-opacity:1.0"
         id="head"
         cx="2.6458333"
         cy="1.5879948"
         rx="1.3124995"
         ry="1.3234115" /><path
         id="path43144"
         style="fill:none;stroke:#ffffff;stroke-width:0.433823;stroke-linecap:butt;stroke-linejoin:bevel;stroke-dasharray:none;stroke-opacity:1.0"
         d="M 0.97927947,3.7730588 C 2.3238937,2.5570758 5.0312495,3.1569828 5.0312495,5.5727758"
         inkscape:label="body" /></g><g
       inkscape:label="data"
       id="layer1-5"
       transform="matrix(3.4576324,0,0,3.4576324,-4.1667055,65.544798)"
       style="stroke:#ffffff;stroke-width:0.289215;stroke-dasharray:none;stroke-opacity:1.0"><ellipse
         style="fill:none;stroke:#ffffff;stroke-width:0.289215;stroke-linecap:round;stroke-linejoin:bevel;stroke-dasharray:none;stroke-opacity:1.0"
         id="path51299"
         cx="9.635417"
         cy="-6.119031"
         rx="1.1658089"
         ry="0.52698648"
         inkscape:label="data-1" /><path
         id="path52558"
         style="fill:none;stroke:#ffffff;stroke-width:0.289215;stroke-linecap:round;stroke-linejoin:bevel;stroke-dasharray:none;stroke-opacity:1.0"
         d="m 8.4696079,-5.3812497 a 1.1658089,0.52698647 0 0 0 1.165809,0.5269865 1.1658089,0.52698647 0 0 0 1.1658091,-0.5269865"
         inkscape:label="data-2" /><path
         id="path52558-9"
         style="fill:none;stroke:#ffffff;stroke-width:0.289215;stroke-linecap:round;stroke-linejoin:bevel;stroke-dasharray:none;stroke-opacity:1.0"
         d="m 8.4696079,-4.6434687 a 1.1658089,0.52698647 0 0 0 1.165809,0.5269866 1.1658089,0.52698647 0 0 0 1.1658091,-0.5269866"
         inkscape:label="data-3" /><path
         style="fill:none;stroke:#ffffff;stroke-width:0.289215;stroke-linecap:butt;stroke-linejoin:bevel;stroke-dasharray:none;stroke-opacity:1.0"
         d="m 8.4696079,-6.1190309 v 1.4755622"
         id="path51781"
         inkscape:label="data-4" /><path
         style="fill:none;stroke:#ffffff;stroke-width:0.289215;stroke-linecap:butt;stroke-linejoin:bevel;stroke-dasharray:none;stroke-opacity:1.0"
         d="m 10.801226,-6.1190309 v 1.4755622"
         id="path51783"
         inkscape:label="data-5" /><ellipse
         style="fill:#ffffff;fill-opacity:1.0;stroke:none;stroke-width:0.289215;stroke-linecap:round;stroke-linejoin:miter;stroke-dasharray:none;stroke-opacity:1"
         id="path52588"
         cx="8.9359312"
         cy="-5.3285513"
         rx="0.1165809"
         ry="0.10539728"
         inkscape:label="dot-2" /><ellipse
         style="fill:#ffffff;fill-opacity:1.0;stroke:none;stroke-width:0.289215;stroke-linecap:round;stroke-linejoin:miter;stroke-dasharray:none;stroke-opacity:1"
         id="path52588-7"
         cx="8.9359312"
         cy="-4.5907698"
         rx="0.1165809"
         ry="0.10539728"
         inkscape:label="dot-1" /></g><g
       inkscape:label="computer"
       id="layer1-6"
       transform="matrix(1.4109304,0,0,1.4109304,1.2212465,69.296716)"
       style="stroke:#ffffff;stroke-width:0.708752;stroke-dasharray:none;stroke-opacity:1.0"><rect
         style="fill:none;stroke:#ffffff;stroke-width:0.708752;stroke-linecap:round;stroke-linejoin:round;stroke-dasharray:none;stroke-opacity:1.0"
         id="rect46217"
         width="13.890625"
         height="9.260417"
         x="1.8259445"
         y="16.145981"
         transform="scale(1,-1)"
         ry="1.8365867"
         inkscape:label="screen" /><path
         style="fill:none;stroke:#ffffff;stroke-width:0.88594;stroke-linecap:butt;stroke-linejoin:round;stroke-dasharray:none;stroke-opacity:1.0"
         d="m 8.4405277,-16.145981 v 2.645834"
         id="path46701"
         inkscape:label="stand-1" /><path
         style="fill:none;stroke:#ffffff;stroke-width:0.88594;stroke-linecap:round;stroke-linejoin:round;stroke-dasharray:none;stroke-opacity:1.0"
         d="M 5.0696715,-13.500147 H 11.857121"
         id="path46703"
         inkscape:label="stand-2" /></g><g
       inkscape:groupmode="layer"
       id="layer3"
       inkscape:label="bar-plot"><path
         style="fill:none;fill-opacity:1;stroke:#ffffff;stroke-width:0.75;stroke-linecap:round;stroke-linejoin:bevel;stroke-dasharray:none;stroke-opacity:1.0"
         d="M 16.116714,43.095825 V 37.496193"
         id="path49026"
         inkscape:label="bar-1" /><path
         style="fill:none;fill-opacity:1;stroke:#ffffff;stroke-width:0.75;stroke-linecap:round;stroke-linejoin:bevel;stroke-dasharray:none;stroke-opacity:1.0"
         d="m 17.23664,43.095825 v -2.61316"
         id="path49028"
         inkscape:label="bar-2" /><path
         style="fill:none;fill-opacity:1;stroke:#ffffff;stroke-width:0.75;stroke-linecap:round;stroke-linejoin:bevel;stroke-dasharray:none;stroke-opacity:1.0"
         d="M 18.356566,43.095825 V 39.362739"
         id="path49030"
         inkscape:label="bar-3" /><path
         style="fill:none;fill-opacity:1;stroke:#ffffff;stroke-width:0.75;stroke-linecap:round;stroke-linejoin:bevel;stroke-dasharray:none;stroke-opacity:1.0"
         d="M 19.476492,43.095825 V 41.975899"
         id="path49032"
         inkscape:label="bar-4" /><path
         style="fill:none;fill-opacity:1;stroke:#ffffff;stroke-width:0.75;stroke-linecap:round;stroke-linejoin:bevel;stroke-dasharray:none;stroke-opacity:1.0"
         d="M 20.596418,43.095825 V 38.242813"
         id="path49034"
         inkscape:label="bar-5" /><path
         style="fill:none;fill-opacity:1;stroke:#ffffff;stroke-width:0.4;stroke-linecap:butt;stroke-linejoin:bevel;stroke-dasharray:none;stroke-opacity:1.0"
         d="m 14.558811,35.816304 v 7.466176 h 7.466175"
         id="path48188-2"
         inkscape:label="bar-axes" /></g><g
       inkscape:groupmode="layer"
       id="layer4"
       inkscape:label="graph-plot"><path
         style="fill:none;fill-opacity:1;stroke:#ffffff;stroke-width:0.45;stroke-linecap:butt;stroke-linejoin:bevel;stroke-dasharray:none;stroke-opacity:1.0"
         d="m 7.1631844,40.793755 1.4932349,-1.493236 1.4932347,0.995491 1.493235,-2.488725"
         id="path48271"
         inkscape:label="graph" /><ellipse
         style="fill:#ffffff;stroke:none;stroke-width:1;stroke-linecap:butt;stroke-linejoin:round;stroke-dasharray:none;stroke-opacity:1;fill-opacity:1.0"
         id="path46705"
         cx="7.1631832"
         cy="-40.793758"
         transform="scale(1,-1)"
         rx="0.49774364"
         ry="0.49774283"
         inkscape:label="data-point-1" /><ellipse
         style="fill:#ffffff;stroke:none;stroke-width:1;stroke-linecap:butt;stroke-linejoin:round;stroke-dasharray:none;stroke-opacity:1;fill-opacity:1.0"
         id="path46705-7"
         cx="8.6564169"
         cy="-39.300522"
         transform="scale(1,-1)"
         rx="0.49774364"
         ry="0.49774283"
         inkscape:label="data-point-2" /><ellipse
         style="fill:#ffffff;stroke:none;stroke-width:1;stroke-linecap:butt;stroke-linejoin:round;stroke-dasharray:none;stroke-opacity:1;fill-opacity:1.0"
         id="path46705-7-5"
         cx="10.149654"
         cy="-40.296009"
         transform="scale(1,-1)"
         rx="0.49774364"
         ry="0.49774283"
         inkscape:label="data-point-3" /><ellipse
         style="fill:#ffffff;stroke:none;stroke-width:1;stroke-linecap:butt;stroke-linejoin:round;stroke-dasharray:none;stroke-opacity:1;fill-opacity:1.0"
         id="path46705-7-5-9"
         cx="11.642889"
         cy="-37.807289"
         transform="scale(1,-1)"
         rx="0.49774364"
         ry="0.49774283"
         inkscape:label="data-point-4" /><path
         style="fill:none;fill-opacity:1;stroke:#ffffff;stroke-width:0.4;stroke-linecap:butt;stroke-linejoin:bevel;stroke-dasharray:none;stroke-opacity:1.0"
         d="M 5.6699493,35.816304 V 43.28248 H 13.136124"
         id="path48188"
         inkscape:label="graph-axes" /></g><g
       inkscape:groupmode="layer"
       id="layer14"
       inkscape:label="desk"><path
         id="rect63222"
         style="fill:none;stroke:#ffffff;stroke-width:0.6;stroke-linecap:butt;stroke-linejoin:round;stroke-dasharray:none;stroke-opacity:1.0"
         d="m 23.009649,40.768727 h 13.458035 c 0.50682,0 0.91483,0.408 0.91483,0.91482 v 11.89284 c 0,0.50678 -0.40801,0.91482 -0.91483,0.91482 H 1.7040675 c -0.506813,0 -0.91482797,-0.40804 -0.91482797,-0.91482 v -11.89284 c 0,-0.50682 0.40801497,-0.91482 0.91482797,-0.91482 v 0 h 1.706376"
         inkscape:label="desk-1" /><path
         style="fill:none;stroke:#ffffff;stroke-width:0.6;stroke-linecap:butt;stroke-linejoin:round;stroke-dasharray:none;stroke-opacity:1.0"
         d="m 0.78923953,50.831887 v 7.31863 H 37.382514 v -7.31863"
         id="path63708"
         inkscape:label="desk-2" /></g></g></svg>
