<?xml version="1.0" encoding="UTF-8" standalone="no"?>
<!-- Created with Inkscape (http://www.inkscape.org/) -->

<svg
   sodipodi:docname="envisioned-ecosystem.svg"
   inkscape:version="1.2.1 (ef4d3fba62, 2022-07-19, custom)"
   xml:space="preserve"
   id="svg63187"
   version="1.1"
   viewBox="0 0 61.21373 19.37936"
   height="19.37936mm"
   width="61.21373mm"
   xmlns:inkscape="http://www.inkscape.org/namespaces/inkscape"
   xmlns:sodipodi="http://sodipodi.sourceforge.net/DTD/sodipodi-0.dtd"
   xmlns="http://www.w3.org/2000/svg"
   xmlns:svg="http://www.w3.org/2000/svg"><sodipodi:namedview
     id="namedview63189"
     pagecolor="#ffffff"
     bordercolor="#000000"
     borderopacity="0.25"
     inkscape:showpageshadow="2"
     inkscape:pageopacity="0.0"
     inkscape:pagecheckerboard="0"
     inkscape:deskcolor="#d1d1d1"
     inkscape:document-units="mm"
     showgrid="true"
     inkscape:zoom="7.1410774"
     inkscape:cx="88.362016"
     inkscape:cy="45.021217"
     inkscape:window-width="2486"
     inkscape:window-height="1376"
     inkscape:window-x="0"
     inkscape:window-y="0"
     inkscape:window-maximized="1"
     inkscape:current-layer="layer1-2"
     showguides="false"><inkscape:grid
       type="xygrid"
       id="grid63191"
       originx="-1.0133525"
       originy="-3.1102221" /></sodipodi:namedview><defs
     id="defs63184"><marker
       style="overflow:visible"
       id="marker82108"
       refX="0"
       refY="0"
       orient="auto-start-reverse"
       inkscape:stockid="Arrow3"
       markerWidth="4.2071066"
       markerHeight="7"
       viewBox="0 0 4.2071068 7"
       inkscape:isstock="true"
       inkscape:collect="always"
       preserveAspectRatio="xMidYMid"><path
         style="fill:none;stroke:context-stroke;stroke-width:1;stroke-linecap:round"
         d="M 3,-3 0,0 3,3"
         id="path82106"
         transform="rotate(180,0.125,0)"
         sodipodi:nodetypes="ccc" /></marker><marker
       style="overflow:visible"
       id="marker82062"
       refX="0"
       refY="0"
       orient="auto-start-reverse"
       inkscape:stockid="Arrow3"
       markerWidth="4.2071066"
       markerHeight="7"
       viewBox="0 0 4.2071068 7"
       inkscape:isstock="true"
       inkscape:collect="always"
       preserveAspectRatio="xMidYMid"><path
         style="fill:none;stroke:context-stroke;stroke-width:1;stroke-linecap:round"
         d="M 3,-3 0,0 3,3"
         id="path82060"
         transform="rotate(180,0.125,0)"
         sodipodi:nodetypes="ccc" /></marker><marker
       style="overflow:visible"
       id="Arrow3"
       refX="0"
       refY="0"
       orient="auto-start-reverse"
       inkscape:stockid="Arrow3"
       markerWidth="4.2071066"
       markerHeight="7"
       viewBox="0 0 4.2071068 7"
       inkscape:isstock="true"
       inkscape:collect="always"
       preserveAspectRatio="xMidYMid"><path
         style="fill:none;stroke:context-stroke;stroke-width:1;stroke-linecap:round"
         d="M 3,-3 0,0 3,3"
         id="arrow3"
         transform="rotate(180,0.125,0)"
         sodipodi:nodetypes="ccc" /></marker></defs><g
     inkscape:groupmode="layer"
     id="layer4"
     inkscape:label="pages"
     transform="translate(-1.0133525,-3.1102222)"><path
       style="fill:none;stroke:#000000;stroke-width:0.32;stroke-linecap:round;stroke-linejoin:round;stroke-dasharray:none"
       d="m 43.734271,3.2702542 a 1.330496,1.330496 0 0 0 -1.318716,1.1589863 0.88699731,0.88699731 0 0 0 -0.10048,-0.00592 0.88699731,0.88699731 0 0 0 -0.886998,0.8869977 0.88699731,0.88699731 0 0 0 0.886998,0.8869976 h 2.483592 0.1774 V 6.1820678 A 1.0643968,1.0643969 0 0 0 45.863064,5.1329165 1.0643968,1.0643969 0 0 0 44.959089,4.0806461 1.330496,1.330496 0 0 0 43.734271,3.2702222 Z"
       id="cloud" /><path
       style="fill:none;fill-opacity:1;stroke:#000000;stroke-width:0.116562;stroke-linecap:butt;stroke-linejoin:round;stroke-dasharray:0.233123, 0.116562;stroke-dashoffset:0;stroke-opacity:1"
       d="M 42.477807,3.8611973 H 23.213011 V 22.431302 H 44.383116 V 6.25734"
       id="path79572" /><path
       style="fill:none;fill-opacity:1;stroke:#000000;stroke-width:0.4;stroke-linecap:round;stroke-linejoin:round;stroke-dasharray:none;stroke-dashoffset:0;stroke-opacity:1;marker-end:url(#Arrow3)"
       d="m 13.229167,13.229167 h 7.937499"
       id="path80486" /><g
       inkscape:label="Layer 1"
       id="layer1-0"
       transform="matrix(0.53211008,0,0,0.53211008,15.590501,8.1989679)"><path
         style="fill:none;stroke:#000000;stroke-width:0.75;stroke-linecap:round;stroke-linejoin:round;stroke-dasharray:none;stroke-opacity:1"
         d="M 0.375,2.6562501 V 5.3020834 H 5.6666666 V 2.6562501"
         id="path54136" /><path
         style="fill:none;stroke:#000000;stroke-width:0.55;stroke-linecap:round;stroke-linejoin:round;stroke-dasharray:none;stroke-opacity:1"
         d="M 3.0208333,3.7145833 V 0.27500001"
         id="path54618" /><path
         style="fill:none;stroke:#000000;stroke-width:0.55;stroke-linecap:round;stroke-linejoin:round;stroke-dasharray:none;stroke-opacity:1"
         d="M 1.6979166,1.5979167 3.0208333,0.27500001 4.3437499,1.5979167"
         id="path55221" /></g></g><g
     inkscape:label="Layer 1"
     inkscape:groupmode="layer"
     id="layer1"
     transform="translate(-1.0133525,-3.1102222)"><g
       inkscape:label="Layer 1"
       id="layer1-1"
       transform="translate(6.3588576,7.3927603)"
       style="fill:none;stroke:#000000;stroke-width:0.6;stroke-dasharray:none;stroke-opacity:1"><ellipse
         style="fill:none;stroke:#000000;stroke-width:0.6;stroke-linecap:butt;stroke-linejoin:bevel;stroke-dasharray:none;stroke-opacity:1"
         id="head"
         cx="2.6458333"
         cy="1.5879948"
         rx="1.3124995"
         ry="1.3234115" /><path
         id="path43144"
         style="fill:none;stroke:#000000;stroke-width:0.6;stroke-linecap:butt;stroke-linejoin:bevel;stroke-dasharray:none;stroke-opacity:1"
         d="M 0.97927947,3.7730588 C 2.3238937,2.5570758 5.0312495,3.1569828 5.0312495,5.5727758" /></g><path
       id="rect63222"
       style="fill:none;stroke:#000000;stroke-width:0.271718;stroke-linecap:butt;stroke-linejoin:round;stroke-dasharray:none;stroke-opacity:1"
       d="m 7.5756932,12.95 h 3.8922688 c 0.146579,0 0.264583,0.118004 0.264583,0.264583 v 3.439584 c 0,0.146579 -0.118004,0.264583 -0.264583,0.264583 H 1.4137942 c -0.146578,0 -0.264582,-0.118004 -0.264582,-0.264583 v -3.439584 c 0,-0.146579 0.118004,-0.264583 0.264582,-0.264583 v 0 h 0.49351" /><path
       style="fill:none;stroke:#000000;stroke-width:0.271718;stroke-linecap:butt;stroke-linejoin:round;stroke-dasharray:none;stroke-opacity:1"
       d="m 1.1492115,15.860417 v 2.116666 H 11.732545 v -2.116666"
       id="path63708" /><g
       inkscape:label="Layer 1"
       id="layer1-5"
       transform="translate(-0.28412206,20.115625)"
       style="stroke:#000000;stroke-width:0.25;stroke-dasharray:none;stroke-opacity:1"><ellipse
         style="fill:none;stroke:#000000;stroke-width:0.3;stroke-linecap:round;stroke-linejoin:bevel;stroke-dasharray:none;stroke-opacity:1"
         id="path51299"
         cx="9.635417"
         cy="-6.119031"
         rx="1.1658089"
         ry="0.52698648" /><path
         id="path52558"
         style="fill:none;stroke:#000000;stroke-width:0.3;stroke-linecap:round;stroke-linejoin:bevel;stroke-dasharray:none;stroke-opacity:1"
         d="m 8.4696079,-5.3812497 a 1.1658089,0.52698647 0 0 0 1.165809,0.5269865 1.1658089,0.52698647 0 0 0 1.1658091,-0.5269865" /><path
         id="path52558-9"
         style="fill:none;stroke:#000000;stroke-width:0.3;stroke-linecap:round;stroke-linejoin:bevel;stroke-dasharray:none;stroke-opacity:1"
         d="m 8.4696079,-4.6434687 a 1.1658089,0.52698647 0 0 0 1.165809,0.5269866 1.1658089,0.52698647 0 0 0 1.1658091,-0.5269866" /><path
         style="fill:none;stroke:#000000;stroke-width:0.3;stroke-linecap:butt;stroke-linejoin:bevel;stroke-dasharray:none;stroke-opacity:1"
         d="m 8.4696079,-6.1190309 v 1.4755622"
         id="path51781" /><path
         style="fill:none;stroke:#000000;stroke-width:0.3;stroke-linecap:butt;stroke-linejoin:bevel;stroke-dasharray:none;stroke-opacity:1"
         d="m 10.801226,-6.1190309 v 1.4755622"
         id="path51783" /><ellipse
         style="fill:#000000;fill-opacity:1;stroke:none;stroke-width:0.25;stroke-linecap:round;stroke-linejoin:miter;stroke-dasharray:none;stroke-opacity:1"
         id="path52588"
         cx="8.9359312"
         cy="-5.3285513"
         rx="0.1165809"
         ry="0.10539728" /><ellipse
         style="fill:#000000;fill-opacity:1;stroke:none;stroke-width:0.25;stroke-linecap:round;stroke-linejoin:miter;stroke-dasharray:none;stroke-opacity:1"
         id="path52588-7"
         cx="8.9359312"
         cy="-4.5907698"
         rx="0.1165809"
         ry="0.10539728" /></g><g
       inkscape:label="Layer 1"
       id="layer1-6"
       transform="matrix(0.4080626,0,0,0.4080626,1.2741562,21.200734)"
       style="stroke:#000000;stroke-width:0.249962;stroke-dasharray:none;stroke-opacity:1"><rect
         style="fill:none;stroke:#000000;stroke-width:1.2253;stroke-linecap:round;stroke-linejoin:round;stroke-dasharray:none;stroke-opacity:1"
         id="rect46217"
         width="13.890625"
         height="9.260417"
         x="1.8259445"
         y="16.145981"
         transform="scale(1,-1)"
         ry="1.8365867" /><path
         style="fill:none;stroke:#000000;stroke-width:1.2253;stroke-linecap:butt;stroke-linejoin:round;stroke-dasharray:none;stroke-opacity:1"
         d="m 8.4405277,-16.145981 v 2.645834"
         id="path46701" /><path
         style="fill:none;stroke:#000000;stroke-width:1.2253;stroke-linecap:round;stroke-linejoin:round;stroke-dasharray:none;stroke-opacity:1"
         d="M 5.0696715,-13.500147 H 11.857121"
         id="path46703" /><ellipse
         style="fill:#000000;stroke:none;stroke-width:0.249962;stroke-linecap:butt;stroke-linejoin:round;stroke-dasharray:none;stroke-opacity:1"
         id="path46705"
         cx="4.2113605"
         cy="20.201534"
         transform="scale(1,-1)"
         rx="0.35277689"
         ry="0.35277632" /><ellipse
         style="fill:#000000;stroke:none;stroke-width:0.249962;stroke-linecap:butt;stroke-linejoin:round;stroke-dasharray:none;stroke-opacity:1"
         id="path46705-7"
         cx="5.2696934"
         cy="21.259869"
         transform="scale(1,-1)"
         rx="0.35277689"
         ry="0.35277632" /><ellipse
         style="fill:#000000;stroke:none;stroke-width:0.249962;stroke-linecap:butt;stroke-linejoin:round;stroke-dasharray:none;stroke-opacity:1"
         id="path46705-7-5"
         cx="6.3280287"
         cy="20.554314"
         transform="scale(1,-1)"
         rx="0.35277689"
         ry="0.35277632" /><ellipse
         style="fill:#000000;stroke:none;stroke-width:0.249962;stroke-linecap:butt;stroke-linejoin:round;stroke-dasharray:none;stroke-opacity:1"
         id="path46705-7-5-9"
         cx="7.3863616"
         cy="22.318201"
         transform="scale(1,-1)"
         rx="0.35277689"
         ry="0.35277632" /><path
         style="fill:none;fill-opacity:1;stroke:#000000;stroke-width:0.24506;stroke-linecap:butt;stroke-linejoin:bevel;stroke-dasharray:none;stroke-opacity:1"
         d="m 3.1530278,-23.729315 v 5.291668 h 5.2916676"
         id="path48188" /><path
         style="fill:none;fill-opacity:1;stroke:#000000;stroke-width:0.24506;stroke-linecap:butt;stroke-linejoin:bevel;stroke-dasharray:none;stroke-opacity:1"
         d="m 9.4530278,-23.729315 v 5.291668 h 5.2916682"
         id="path48188-2" /><path
         style="fill:none;fill-opacity:1;stroke:#000000;stroke-width:0.24506;stroke-linecap:butt;stroke-linejoin:bevel;stroke-dasharray:none;stroke-opacity:1"
         d="m 4.2113614,-20.201536 1.0583335,-1.058334 1.0583336,0.705556 1.0583335,-1.763889"
         id="path48271" /><path
         style="fill:none;fill-opacity:1;stroke:#000000;stroke-width:0.551386;stroke-linecap:round;stroke-linejoin:bevel;stroke-dasharray:none;stroke-opacity:1"
         d="M 10.557195,-18.569939 V -22.53869"
         id="path49026" /><path
         style="fill:none;fill-opacity:1;stroke:#000000;stroke-width:0.551386;stroke-linecap:round;stroke-linejoin:bevel;stroke-dasharray:none;stroke-opacity:1"
         d="m 11.350945,-18.569939 v -1.852083"
         id="path49028" /><path
         style="fill:none;fill-opacity:1;stroke:#000000;stroke-width:0.551386;stroke-linecap:round;stroke-linejoin:bevel;stroke-dasharray:none;stroke-opacity:1"
         d="m 12.144695,-18.569939 v -2.645833"
         id="path49030" /><path
         style="fill:none;fill-opacity:1;stroke:#000000;stroke-width:0.551386;stroke-linecap:round;stroke-linejoin:bevel;stroke-dasharray:none;stroke-opacity:1"
         d="m 12.938445,-18.569939 v -0.79375"
         id="path49032" /><path
         style="fill:none;fill-opacity:1;stroke:#000000;stroke-width:0.551386;stroke-linecap:round;stroke-linejoin:bevel;stroke-dasharray:none;stroke-opacity:1"
         d="m 13.732195,-18.569939 v -3.439583"
         id="path49034" /></g><g
       inkscape:label="Layer 1"
       id="layer1-54"
       transform="matrix(0.38323121,0,0,0.38323121,26.491841,5.4952288)"><rect
         style="fill:none;stroke:#000000;stroke-width:0.75;stroke-linecap:round;stroke-linejoin:round;stroke-dasharray:none"
         id="rect55313"
         width="13.450001"
         height="13.229166"
         x="0.27500004"
         y="0.27500001"
         ry="2.5802996" /><path
         style="fill:none;stroke:#000000;stroke-width:0.75;stroke-linecap:round;stroke-linejoin:round;stroke-dasharray:none"
         d="M 0.27940742,2.9208335 H 13.720593"
         id="path55315" /><ellipse
         style="fill:#000000;fill-opacity:1;stroke:none;stroke-width:0.8;stroke-linejoin:miter;stroke-dasharray:none;stroke-dashoffset:0;stroke-opacity:1"
         id="path20553-2"
         cx="2.8531282"
         cy="1.5979168"
         rx="0.46145934"
         ry="0.46145925" /><ellipse
         style="fill:#000000;fill-opacity:1;stroke:none;stroke-width:0.8;stroke-linejoin:miter;stroke-dasharray:none;stroke-dashoffset:0;stroke-opacity:1"
         id="path20553-6-9"
         cx="4.7052097"
         cy="1.5979168"
         rx="0.46145934"
         ry="0.46145925" /><ellipse
         style="fill:#000000;fill-opacity:1;stroke:none;stroke-width:0.8;stroke-linejoin:miter;stroke-dasharray:none;stroke-dashoffset:0;stroke-opacity:1"
         id="path20553-6-2-3"
         cx="6.5572991"
         cy="1.5979168"
         rx="0.46145934"
         ry="0.46145925" /><path
         style="fill:none;stroke:#000000;stroke-width:0.55;stroke-linecap:round;stroke-linejoin:round"
         d="M 2.5250003,6.0395833 H 6.4937502"
         id="path55391" /><path
         style="fill:none;stroke:#000000;stroke-width:0.55;stroke-linecap:round;stroke-linejoin:round"
         d="M 2.5250003,7.3624999 H 6.4937502"
         id="path55393" /><path
         style="fill:none;stroke:#000000;stroke-width:0.55;stroke-linecap:round;stroke-linejoin:round"
         d="M 2.5250003,8.6854166 H 10.4625"
         id="path55395" /><path
         style="fill:none;stroke:#000000;stroke-width:0.55;stroke-linecap:round;stroke-linejoin:round"
         d="M 2.5250003,10.008333 H 5.1708336"
         id="path55397" /><path
         style="fill:none;stroke:#000000;stroke-width:0.55;stroke-linecap:round;stroke-linejoin:round"
         d="M 2.5250003,11.331249 H 7.8166669"
         id="path55399" /><rect
         style="fill:none;stroke:#000000;stroke-width:0.55;stroke-linecap:round;stroke-linejoin:round"
         id="rect55401"
         width="3.175"
         height="2.6458333"
         x="7.6729169"
         y="4.7624998"
         ry="0.29900867"
         rx="0.15801236" /></g><g
       inkscape:label="Layer 1"
       id="layer1-54-4"
       transform="matrix(0.38323121,0,0,0.38323121,37.075174,9.4639788)"><rect
         style="fill:none;stroke:#000000;stroke-width:0.75;stroke-linecap:round;stroke-linejoin:round;stroke-dasharray:none"
         id="rect55313-3"
         width="13.450001"
         height="13.229166"
         x="0.27500004"
         y="0.27500001"
         ry="2.5802996" /><path
         style="fill:none;stroke:#000000;stroke-width:0.75;stroke-linecap:round;stroke-linejoin:round;stroke-dasharray:none"
         d="M 0.27940742,2.9208335 H 13.720593"
         id="path55315-0" /><ellipse
         style="fill:#000000;fill-opacity:1;stroke:none;stroke-width:0.8;stroke-linejoin:miter;stroke-dasharray:none;stroke-dashoffset:0;stroke-opacity:1"
         id="path20553-2-7"
         cx="2.8531282"
         cy="1.5979168"
         rx="0.46145934"
         ry="0.46145925" /><ellipse
         style="fill:#000000;fill-opacity:1;stroke:none;stroke-width:0.8;stroke-linejoin:miter;stroke-dasharray:none;stroke-dashoffset:0;stroke-opacity:1"
         id="path20553-6-9-8"
         cx="4.7052097"
         cy="1.5979168"
         rx="0.46145934"
         ry="0.46145925" /><ellipse
         style="fill:#000000;fill-opacity:1;stroke:none;stroke-width:0.8;stroke-linejoin:miter;stroke-dasharray:none;stroke-dashoffset:0;stroke-opacity:1"
         id="path20553-6-2-3-6"
         cx="6.5572991"
         cy="1.5979168"
         rx="0.46145934"
         ry="0.46145925" /><path
         style="fill:none;stroke:#000000;stroke-width:0.55;stroke-linecap:round;stroke-linejoin:round"
         d="M 2.5250003,6.0395833 H 6.4937502"
         id="path55391-8" /><path
         style="fill:none;stroke:#000000;stroke-width:0.55;stroke-linecap:round;stroke-linejoin:round"
         d="M 2.5250003,7.3624999 H 6.4937502"
         id="path55393-8" /><path
         style="fill:none;stroke:#000000;stroke-width:0.55;stroke-linecap:round;stroke-linejoin:round"
         d="M 2.5250003,8.6854166 H 10.4625"
         id="path55395-4" /><path
         style="fill:none;stroke:#000000;stroke-width:0.55;stroke-linecap:round;stroke-linejoin:round"
         d="M 2.5250003,10.008333 H 5.1708336"
         id="path55397-3" /><path
         style="fill:none;stroke:#000000;stroke-width:0.55;stroke-linecap:round;stroke-linejoin:round"
         d="M 2.5250003,11.331249 H 7.8166669"
         id="path55399-1" /><rect
         style="fill:none;stroke:#000000;stroke-width:0.55;stroke-linecap:round;stroke-linejoin:round"
         id="rect55401-4"
         width="3.175"
         height="2.6458333"
         x="7.6729169"
         y="4.7624998"
         ry="0.29900867"
         rx="0.15801236" /></g><g
       inkscape:label="Layer 1"
       id="layer1-54-4-9"
       transform="matrix(0.38323121,0,0,0.38323121,27.744465,15.769611)"><rect
         style="fill:none;stroke:#000000;stroke-width:0.75;stroke-linecap:round;stroke-linejoin:round;stroke-dasharray:none"
         id="rect55313-3-2"
         width="13.450001"
         height="13.229166"
         x="0.27500004"
         y="0.27500001"
         ry="2.5802996" /><path
         style="fill:none;stroke:#000000;stroke-width:0.75;stroke-linecap:round;stroke-linejoin:round;stroke-dasharray:none"
         d="M 0.27940742,2.9208335 H 13.720593"
         id="path55315-0-0" /><ellipse
         style="fill:#000000;fill-opacity:1;stroke:none;stroke-width:0.8;stroke-linejoin:miter;stroke-dasharray:none;stroke-dashoffset:0;stroke-opacity:1"
         id="path20553-2-7-6"
         cx="2.8531282"
         cy="1.5979168"
         rx="0.46145934"
         ry="0.46145925" /><ellipse
         style="fill:#000000;fill-opacity:1;stroke:none;stroke-width:0.8;stroke-linejoin:miter;stroke-dasharray:none;stroke-dashoffset:0;stroke-opacity:1"
         id="path20553-6-9-8-8"
         cx="4.7052097"
         cy="1.5979168"
         rx="0.46145934"
         ry="0.46145925" /><ellipse
         style="fill:#000000;fill-opacity:1;stroke:none;stroke-width:0.8;stroke-linejoin:miter;stroke-dasharray:none;stroke-dashoffset:0;stroke-opacity:1"
         id="path20553-6-2-3-6-9"
         cx="6.5572991"
         cy="1.5979168"
         rx="0.46145934"
         ry="0.46145925" /><path
         style="fill:none;stroke:#000000;stroke-width:0.55;stroke-linecap:round;stroke-linejoin:round"
         d="M 2.5250003,6.0395833 H 6.4937502"
         id="path55391-8-2" /><path
         style="fill:none;stroke:#000000;stroke-width:0.55;stroke-linecap:round;stroke-linejoin:round"
         d="M 2.5250003,7.3624999 H 6.4937502"
         id="path55393-8-6" /><path
         style="fill:none;stroke:#000000;stroke-width:0.55;stroke-linecap:round;stroke-linejoin:round"
         d="M 2.5250003,8.6854166 H 10.4625"
         id="path55395-4-6" /><path
         style="fill:none;stroke:#000000;stroke-width:0.55;stroke-linecap:round;stroke-linejoin:round"
         d="M 2.5250003,10.008333 H 5.1708336"
         id="path55397-3-4" /><path
         style="fill:none;stroke:#000000;stroke-width:0.55;stroke-linecap:round;stroke-linejoin:round"
         d="M 2.5250003,11.331249 H 7.8166669"
         id="path55399-1-9" /><rect
         style="fill:none;stroke:#000000;stroke-width:0.55;stroke-linecap:round;stroke-linejoin:round"
         id="rect55401-4-5"
         width="3.175"
         height="2.6458333"
         x="7.6729169"
         y="4.7624998"
         ry="0.29900867"
         rx="0.15801236" /></g><g
       inkscape:label="Layer 1"
       id="layer1-48"
       transform="translate(55.5375,9.8031771)"
       style="stroke-width:0.6;stroke-dasharray:none"><g
         inkscape:label="Layer 1"
         id="layer1-4"
         transform="translate(0.02500005,0.51458333)"
         style="stroke-width:0.6;stroke-dasharray:none"><ellipse
           style="fill:none;stroke:#000000;stroke-width:0.6;stroke-linecap:butt;stroke-linejoin:bevel;stroke-dasharray:none;stroke-opacity:1"
           id="head-7"
           cx="2.6458333"
           cy="1.5879948"
           rx="1.3124995"
           ry="1.3234115" /><path
           style="fill:none;stroke:#000000;stroke-width:0.6;stroke-linecap:round;stroke-linejoin:bevel;stroke-dasharray:none;stroke-opacity:1"
           d="m 0.22499995,5.5354167 c 1e-7,-3.2138889 4.79166665,-3.2138889 4.79166665,0"
           id="path43144-1"
           sodipodi:nodetypes="cc" /></g><g
         inkscape:label="Layer 1"
         id="layer1-4-5"
         transform="translate(3.1854172,2.1161715)"
         style="stroke-width:0.6;stroke-dasharray:none"><path
           style="fill:none;stroke:#000000;stroke-width:0.6;stroke-linecap:butt;stroke-linejoin:bevel;stroke-dasharray:none;stroke-opacity:1"
           d="m -0.26113553,-1.3099356 a 1.3124995,1.3234115 0 0 1 1.0694683,-0.5562359 1.3124995,1.3234115 0 0 1 1.31249953,1.3234114 v 0 A 1.3124995,1.3234115 0 0 1 0.80833277,0.78065143 1.3124995,1.3234115 0 0 1 0.54446617,0.75363103"
           id="head-0" /><path
           id="path43144-3"
           style="fill:none;stroke:#000000;stroke-width:0.6;stroke-linecap:round;stroke-linejoin:bevel;stroke-dasharray:none;stroke-opacity:1"
           d="M 0.55606362,0.77708373 C 1.8318688,0.65615113 3.2041661,1.4556525 3.2041661,3.175583" /></g><g
         inkscape:label="Layer 1"
         id="layer1-4-7"
         transform="translate(2.6562506,7.937005)"
         style="stroke-width:0.6;stroke-dasharray:none" /></g><path
       style="fill:none;fill-opacity:1;stroke:#000000;stroke-width:0.4;stroke-linecap:round;stroke-linejoin:round;stroke-dasharray:none;stroke-dashoffset:0;stroke-opacity:1;marker-end:url(#marker82062)"
       d="m 54.239583,10.583333 h -7.9375"
       id="path82056"
       sodipodi:nodetypes="cc" /><path
       style="fill:none;fill-opacity:1;stroke:#000000;stroke-width:0.4;stroke-linecap:round;stroke-linejoin:round;stroke-dasharray:none;stroke-dashoffset:0;stroke-opacity:1;marker-end:url(#marker82108)"
       d="m 46.302083,15.875 h 7.9375"
       id="path82058"
       sodipodi:nodetypes="cc" /><g
       inkscape:label="Layer 1"
       id="layer1-7"
       transform="matrix(0.28400235,0,0,0.28400235,48.807144,17.387358)"><path
         style="fill:none;stroke:#000000;stroke-width:0.6;stroke-linecap:butt;stroke-linejoin:round;stroke-dasharray:none"
         d="M 0.29698497,2.942818 H 12.203235"
         id="path87097" /><path
         style="fill:none;stroke:#000000;stroke-width:0.6;stroke-linecap:butt;stroke-linejoin:round;stroke-dasharray:none"
         d="M 3.96875,2.9104167 V 10.815516"
         id="path87105" /><path
         style="fill:none;stroke:#000000;stroke-width:0.6;stroke-linecap:butt;stroke-linejoin:round;stroke-dasharray:none"
         d="M 7.9375,2.9478533 V 7.1063134"
         id="path87107" /><path
         style="fill:none;stroke:#000000;stroke-width:0.6;stroke-linecap:butt;stroke-linejoin:round;stroke-dasharray:none"
         d="M 0.29698497,5.5886512 H 12.203235"
         id="path87109" /><path
         style="fill:none;stroke:#000000;stroke-width:0.6;stroke-linecap:butt;stroke-linejoin:round;stroke-dasharray:none"
         d="M 0.29698497,8.2344846 H 7.4083333"
         id="path87111" /><g
         inkscape:label="Layer 1"
         id="layer1-2"
         transform="translate(12.820882,3.8037764)"><path
           style="color:#000000;fill:#000000;stroke-linecap:round;stroke-linejoin:bevel"
           d="m -2.7667153,2.5899736 c -0.7812922,0 -1.4920189,0.1542126 -2.0390626,0.4277344 -0.5470436,0.2735218 -0.9824218,0.7015534 -0.9824218,1.2695312 -1e-7,0.5679779 0.4353782,0.9979626 0.9824218,1.2714844 0.5470437,0.2735218 1.2577704,0.4277344 2.0390626,0.4277344 0.7812922,0 1.4900658,-0.1542126 2.03710927,-0.4277344 0.5470436,-0.2735218 0.982422,-0.7035065 0.9824219,-1.2714844 0,-0.5679778 -0.4353783,-0.9960094 -0.9824219,-1.2695312 C -1.2766495,2.7441862 -1.9854232,2.5899736 -2.7667153,2.5899736 Z m 0,0.75 c 0.6799597,0 1.2925662,0.1423769 1.703125,0.3476562 0.41055867,0.2052794 0.56640617,0.4369613 0.56640617,0.5996094 0,0.1626481 -0.1558475,0.3962831 -0.56640617,0.6015625 -0.4105588,0.2052794 -1.0231653,0.3476563 -1.703125,0.3476563 -0.6799598,0 -1.2925663,-0.1423769 -1.703125,-0.3476563 -0.4105588,-0.2052794 -0.5683595,-0.4389143 -0.5683594,-0.6015625 0,-0.1626481 0.1578006,-0.39433 0.5683594,-0.5996094 0.4105587,-0.2052793 1.0231652,-0.3476562 1.703125,-0.3476562 z"
           id="path51299-2" /><path
           style="color:#000000;fill:#000000;stroke-linecap:round;stroke-linejoin:bevel"
           d="m -5.4131997,5.7657549 a 0.375,0.375 0 0 0 -0.375,0.375 c -1e-7,0.5679779 0.4353782,0.9960094 0.9824218,1.2695312 0.5470438,0.2735218 1.2577703,0.4277344 2.0390626,0.4277344 0.7812921,-10e-8 1.4900659,-0.1542126 2.03710927,-0.4277344 0.5470435,-0.2735218 0.982422,-0.7015535 0.9824219,-1.2695312 a 0.375,0.375 0 0 0 -0.375,-0.375 0.375,0.375 0 0 0 -0.375,0.375 c 0,0.162648 -0.1558476,0.39433 -0.56640617,0.5996093 -0.4105587,0.2052794 -1.0231653,0.3476562 -1.703125,0.3476563 -0.6799599,0 -1.2925662,-0.1423769 -1.703125,-0.3476563 C -4.8803992,6.5350848 -5.0381998,6.303403 -5.0381997,6.1407549 a 0.375,0.375 0 0 0 -0.375,-0.375 z"
           id="path52558-2" /><path
           style="color:#000000;fill:#000000;stroke-linecap:round;stroke-linejoin:bevel"
           d="m -5.4131997,7.6173173 a 0.375,0.375 0 0 0 -0.375,0.375 c -1e-7,0.567978 0.4353782,0.9979626 0.9824218,1.2714844 0.5470438,0.2735218 1.2577703,0.4257813 2.0390626,0.4257813 0.7812921,-1e-7 1.4900659,-0.1522595 2.03710927,-0.4257813 0.5470435,-0.2735218 0.982422,-0.7035066 0.9824219,-1.2714844 a 0.375,0.375 0 0 0 -0.375,-0.375 0.375,0.375 0 0 0 -0.375,0.375 c 0,0.1626481 -0.1558476,0.3943301 -0.56640617,0.5996094 -0.4105587,0.2052794 -1.0231653,0.3476562 -1.703125,0.3476563 -0.6799599,0 -1.2925662,-0.1423769 -1.703125,-0.3476563 C -4.8803992,8.3866473 -5.0381998,8.1549655 -5.0381997,7.9923173 a 0.375,0.375 0 0 0 -0.375,-0.375 z"
           id="path52558-9-6" /><path
           style="color:#000000;fill:#000000;stroke-linejoin:bevel"
           d="m -5.7881997,4.2872392 v 3.7050781 h 0.75 V 4.2872392 Z"
           id="path51781-1" /><path
           style="color:#000000;fill:#000000;stroke-linejoin:bevel"
           d="m -0.49718413,4.2872392 v 3.7050781 h 0.75 V 4.2872392 Z"
           id="path51783-0" /><path
           style="fill:none;stroke-width:0.750001;stroke-linecap:round;stroke-linejoin:bevel"
           d="m 3.96875,11.90625 7.9375,-9e-6"
           id="path51820" /><path
           style="fill:none;stroke-width:0.750001;stroke-linecap:round;stroke-linejoin:bevel"
           d="m 13.229167,11.90625 -7.9375004,-9e-6"
           id="path52554" /><path
           id="path52588-6"
           style="stroke-width:0.250001;stroke-linecap:round"
           d="M -4.0902827,6.2722653 A 0.26458332,0.26458329 0 0 1 -4.3548661,6.5368486 0.26458332,0.26458329 0 0 1 -4.6194494,6.2722653 0.26458332,0.26458329 0 0 1 -4.3548661,6.0076821 0.26458332,0.26458329 0 0 1 -4.0902827,6.2722653 Z" /><path
           id="path52588-7-1"
           style="stroke-width:0.250001;stroke-linecap:round"
           d="M -4.0902827,8.1243488 A 0.26458332,0.26458329 0 0 1 -4.3548661,8.3889321 0.26458332,0.26458329 0 0 1 -4.6194494,8.1243488 0.26458332,0.26458329 0 0 1 -4.3548661,7.8597655 0.26458332,0.26458329 0 0 1 -4.0902827,8.1243488 Z" /></g><path
         style="fill:none;stroke:#000000;stroke-width:0.880274;stroke-linecap:butt;stroke-linejoin:round;stroke-dasharray:none;stroke-opacity:1"
         d="M 7.4083332,10.583333 H 0.26458333 V 0.26458333 H 11.90625 V 7.1437499"
         id="path93295"
         sodipodi:nodetypes="ccccc" /></g><g
       inkscape:label="Layer 1"
       id="layer1-59"
       transform="matrix(0.26887245,0,0,0.26887245,48.574712,5.374025)"><path
         style="fill:none;stroke:#000000;stroke-width:0.8;stroke-linecap:round;stroke-linejoin:round;stroke-dasharray:none"
         d="M 11.90625,2.6458333 V 3.96875"
         id="path83538" /><path
         style="fill:none;stroke:#000000;stroke-width:0.8;stroke-linecap:round;stroke-linejoin:round;stroke-dasharray:none"
         d="M 11.90625,6.6145832 V 7.9374999"
         id="path83542" /><path
         style="fill:none;stroke:#000000;stroke-width:0.8;stroke-linecap:round;stroke-linejoin:round;stroke-dasharray:none"
         d="M 11.90625,10.583333 V 11.90625"
         id="path83544" /><path
         style="fill:none;stroke:#000000;stroke-width:0.7;stroke-linecap:round;stroke-linejoin:round;stroke-dasharray:none"
         d="M 13.229167,1.3229166 V 13.229167"
         id="path83546" /><path
         id="rect83548"
         style="fill:none;stroke:#000000;stroke-width:0.782453;stroke-linecap:round;stroke-linejoin:round;stroke-dasharray:none"
         d="m 2.6488871,11.305818 -2.06099851,2.205985 c -0.27963341,0.29931 -0.26407534,0.765306 0.035235,1.044939 0.29931,0.279633 0.76530671,0.263498 1.04494011,-0.03581 l 2.1609296,-2.31285 A 2.9574865,2.9574865 0 0 1 3.6695666,12.136456 2.9574865,2.9574865 0 0 1 3.4991642,12.04519 2.9574865,2.9574865 0 0 1 3.3345387,11.942949 2.9574865,2.9574865 0 0 1 3.1774219,11.830309 2.9574865,2.9574865 0 0 1 3.0278145,11.707274 2.9574865,2.9574865 0 0 1 2.886872,11.574996 2.9574865,2.9574865 0 0 1 2.7545937,11.434052 2.9574865,2.9574865 0 0 1 2.6488871,11.305818 Z" /><circle
         style="fill:none;stroke:#000000;stroke-width:0.782453;stroke-linecap:round;stroke-linejoin:round;stroke-dasharray:none"
         id="path84044"
         cx="5.2014508"
         cy="9.260417"
         r="2.9574864" /><path
         style="fill:none;stroke:#000000;stroke-width:0.7;stroke-linecap:round;stroke-linejoin:round;stroke-dasharray:none"
         d="M 13.229167,13.229167 H 4.4979167"
         id="path84046"
         sodipodi:nodetypes="cc" /><path
         style="fill:none;stroke:#000000;stroke-width:0.7;stroke-linecap:round;stroke-linejoin:round;stroke-dasharray:none"
         d="M 13.229167,9.2604166 H 9.2604166"
         id="path84048" /><path
         style="fill:none;stroke:#000000;stroke-width:0.7;stroke-linecap:round;stroke-linejoin:round;stroke-dasharray:none"
         d="M 13.229167,5.2916666 H 2.6458333"
         id="path84050" /><path
         style="fill:none;stroke:#000000;stroke-width:0.7;stroke-linecap:round;stroke-linejoin:round;stroke-dasharray:none"
         d="M 2.6458333,6.0854167 V 1.3229166 l 10.5833337,10e-8"
         id="path84052"
         sodipodi:nodetypes="ccc" /><path
         style="fill:none;stroke:#000000;stroke-width:0.8;stroke-linecap:round;stroke-linejoin:round;stroke-dasharray:none"
         d="M 10.583333,2.6458333 V 3.96875"
         id="path84054" /><path
         style="fill:none;stroke:#000000;stroke-width:0.8;stroke-linecap:round;stroke-linejoin:round;stroke-dasharray:none"
         d="M 10.583333,6.6145832 V 7.9374999"
         id="path84056" /><path
         style="fill:none;stroke:#000000;stroke-width:0.8;stroke-linecap:round;stroke-linejoin:round;stroke-dasharray:none"
         d="M 10.583333,10.583333 V 11.90625"
         id="path84058" /><path
         style="fill:none;stroke:#000000;stroke-width:0.8;stroke-linecap:round;stroke-linejoin:round;stroke-dasharray:none"
         d="M 9.2604166,10.583333 V 11.90625"
         id="path84060" /><path
         style="fill:none;stroke:#000000;stroke-width:0.8;stroke-linecap:round;stroke-linejoin:round;stroke-dasharray:none"
         d="M 9.2604166,6.6145832 V 7.9374999"
         id="path84062" /><path
         style="fill:none;stroke:#000000;stroke-width:0.8;stroke-linecap:round;stroke-linejoin:round;stroke-dasharray:none"
         d="M 9.2604166,2.6458333 V 3.96875"
         id="path84064" /><path
         style="fill:none;stroke:#000000;stroke-width:0.8;stroke-linecap:round;stroke-linejoin:round;stroke-dasharray:none"
         d="M 7.9374999,2.6458333 V 3.96875"
         id="path84066" /><path
         fill="#000000"
         d="m 6.0185009,8.5340435 a 0.92606812,0.92606812 0 0 0 -1.72806,-0.4630209 0.26462588,0.26462588 0 0 0 0.45837,0.2645834 0.39757879,0.39757879 0 0 1 0.343649,-0.1984375 0.396875,0.396875 0 1 1 0,0.79375 h -6.46e-4 a 0.25131183,0.25131183 0 0 0 -0.05008,0.010239 0.27299973,0.27299973 0 0 0 -0.05255,0.010755 0.26001927,0.26001927 0 0 0 -0.04115,0.027741 0.2667344,0.2667344 0 0 0 -0.04286,0.029038 0.265811,0.265811 0 0 0 -0.03097,0.045958 0.2587334,0.2587334 0 0 0 -0.02558,0.038145 0.27054175,0.27054175 0 0 0 -0.01134,0.056068 0.25094935,0.25094935 0 0 0 -0.0094,0.046638 v 0.2645833 l 6.14e-4,0.003 2.91e-4,0.129934 a 0.26462567,0.26462567 0 0 0 0.264583,0.263942 h 6.45e-4 a 0.26459921,0.26459921 0 0 0 0.263938,-0.265229 l -4.05e-4,-0.17499 a 0.92435627,0.92435627 0 0 0 0.660951,-0.8826973 z m -1.111948,1.7965195 a 0.26458333,0.26458333 0 0 0 0.185131,0.452438 0.27410833,0.27410833 0 0 0 0.187974,-0.07673 0.26859706,0.26859706 0 0 0 0,-0.375687 0.27364531,0.27364531 0 0 0 -0.373105,-2.1e-5 z"
         id="path84447"
         style="stroke-width:0.264583" /></g></g></svg>
