<svg id="visual" viewBox="0 0 960 330" width="960" height="330" xmlns="http://www.w3.org/2000/svg" xmlns:xlink="http://www.w3.org/1999/xlink" version="1.1"><rect x="0" y="0" width="960" height="330" fill="#6cb2c5"></rect><path d="M0 225L22.8 225.2C45.7 225.3 91.3 225.7 137 224.8C182.7 224 228.3 222 274 222.8C319.7 223.7 365.3 227.3 411.2 225.5C457 223.7 503 216.3 548.8 214.8C594.7 213.3 640.3 217.7 686 219.7C731.7 221.7 777.3 221.3 823 221C868.7 220.7 914.3 220.3 937.2 220.2L960 220L960 331L937.2 331C914.3 331 868.7 331 823 331C777.3 331 731.7 331 686 331C640.3 331 594.7 331 548.8 331C503 331 457 331 411.2 331C365.3 331 319.7 331 274 331C228.3 331 182.7 331 137 331C91.3 331 45.7 331 22.8 331L0 331Z" fill="#55b2cc"></path><path d="M0 242L22.8 242.5C45.7 243 91.3 244 137 245.7C182.7 247.3 228.3 249.7 274 251.7C319.7 253.7 365.3 255.3 411.2 257.2C457 259 503 261 548.8 255.7C594.7 250.3 640.3 237.7 686 230.5C731.7 223.3 777.3 221.7 823 220.3C868.7 219 914.3 218 937.2 217.5L960 217L960 331L937.2 331C914.3 331 868.7 331 823 331C777.3 331 731.7 331 686 331C640.3 331 594.7 331 548.8 331C503 331 457 331 411.2 331C365.3 331 319.7 331 274 331C228.3 331 182.7 331 137 331C91.3 331 45.7 331 22.8 331L0 331Z" fill="#449eb9"></path><path d="M0 245L22.8 246.7C45.7 248.3 91.3 251.7 137 256.7C182.7 261.7 228.3 268.3 274 266C319.7 263.7 365.3 252.3 411.2 247.2C457 242 503 243 548.8 246.8C594.7 250.7 640.3 257.3 686 263.5C731.7 269.7 777.3 275.3 823 275.3C868.7 275.3 914.3 269.7 937.2 266.8L960 264L960 331L937.2 331C914.3 331 868.7 331 823 331C777.3 331 731.7 331 686 331C640.3 331 594.7 331 548.8 331C503 331 457 331 411.2 331C365.3 331 319.7 331 274 331C228.3 331 182.7 331 137 331C91.3 331 45.7 331 22.8 331L0 331Z" fill="#328ba7"></path><path d="M0 266L22.8 267C45.7 268 91.3 270 137 272.5C182.7 275 228.3 278 274 279.2C319.7 280.3 365.3 279.7 411.2 281.5C457 283.3 503 287.7 548.8 289.2C594.7 290.7 640.3 289.3 686 289C731.7 288.7 777.3 289.3 823 290.8C868.7 292.3 914.3 294.7 937.2 295.8L960 297L960 331L937.2 331C914.3 331 868.7 331 823 331C777.3 331 731.7 331 686 331C640.3 331 594.7 331 548.8 331C503 331 457 331 411.2 331C365.3 331 319.7 331 274 331C228.3 331 182.7 331 137 331C91.3 331 45.7 331 22.8 331L0 331Z" fill="#1e7894"></path><path d="M0 293L22.8 294C45.7 295 91.3 297 137 298.3C182.7 299.7 228.3 300.3 274 301C319.7 301.7 365.3 302.3 411.2 301C457 299.7 503 296.3 548.8 297.3C594.7 298.3 640.3 303.7 686 303.2C731.7 302.7 777.3 296.3 823 293.3C868.7 290.3 914.3 290.7 937.2 290.8L960 291L960 331L937.2 331C914.3 331 868.7 331 823 331C777.3 331 731.7 331 686 331C640.3 331 594.7 331 548.8 331C503 331 457 331 411.2 331C365.3 331 319.7 331 274 331C228.3 331 182.7 331 137 331C91.3 331 45.7 331 22.8 331L0 331Z" fill="#006582"></path></svg>